<svg width="75" height="75" viewBox="0 0 75 75" fill="none" xmlns="http://www.w3.org/2000/svg">
<circle cx="37.5" cy="37.5" r="37.5" fill="#C4C4C4" fill-opacity="0.15"/>
<path d="M32.7013 33.832C33.3733 33.832 33.7093 34.168 33.7093 34.84V47.344C33.7093 48.528 33.4293 49.4 32.8693 49.96C32.3093 50.52 31.4373 50.8 30.2533 50.8H25.7893C23.8533 50.8 22.7333 50.008 22.4293 48.424C22.4133 48.376 22.4053 48.296 22.4053 48.184C22.4053 47.928 22.4933 47.72 22.6693 47.56C22.8453 47.416 23.0933 47.344 23.4133 47.344C23.7013 47.344 23.9173 47.416 24.0613 47.56C24.2053 47.72 24.3333 47.976 24.4453 48.328C24.5413 48.504 24.6853 48.624 24.8773 48.688C25.0853 48.752 25.3893 48.784 25.7893 48.784H30.2533C30.8453 48.784 31.2293 48.688 31.4053 48.496C31.5973 48.32 31.6933 47.936 31.6933 47.344V44.56C31.2613 45.024 30.7253 45.384 30.0853 45.64C29.4453 45.88 28.7333 46 27.9493 46H27.0373C25.4373 46 24.2533 45.616 23.4853 44.848C22.7173 44.08 22.3333 42.904 22.3333 41.32V38.536C22.3333 36.92 22.7173 35.728 23.4853 34.96C24.2533 34.192 25.4373 33.816 27.0373 33.832H29.0053C30.1573 33.832 31.0533 34.168 31.6933 34.84C31.6933 34.168 32.0293 33.832 32.7013 33.832ZM27.9493 43.984C29.0693 43.984 29.9733 43.848 30.6613 43.576C31.3493 43.288 31.6933 42.872 31.6933 42.328V37.528C31.6933 36.904 31.4693 36.472 31.0213 36.232C30.5733 35.976 29.9013 35.848 29.0053 35.848H27.0373C26.3333 35.832 25.7893 35.904 25.4053 36.064C25.0213 36.224 24.7493 36.496 24.5893 36.88C24.4293 37.264 24.3493 37.816 24.3493 38.536V41.32C24.3493 42.024 24.4293 42.568 24.5893 42.952C24.7493 43.32 25.0213 43.584 25.4053 43.744C25.7893 43.904 26.3333 43.984 27.0373 43.984H27.9493ZM44.9998 46C43.3998 46 42.2158 45.616 41.4478 44.848C40.6798 44.08 40.2958 42.904 40.2958 41.32V38.536C40.2958 36.936 40.6798 35.752 41.4478 34.984C42.2158 34.216 43.3998 33.832 44.9998 33.832H46.9678C48.5678 33.832 49.7518 34.216 50.5198 34.984C51.2878 35.752 51.6718 36.936 51.6718 38.536V41.296C51.6718 42.896 51.2878 44.08 50.5198 44.848C49.7518 45.616 48.5678 46 46.9678 46H44.9998ZM46.9678 43.984C47.6718 43.984 48.2158 43.904 48.5998 43.744C48.9838 43.584 49.2558 43.312 49.4158 42.928C49.5758 42.544 49.6558 42 49.6558 41.296V38.536C49.6558 37.832 49.5758 37.288 49.4158 36.904C49.2558 36.52 48.9838 36.248 48.5998 36.088C48.2158 35.928 47.6718 35.848 46.9678 35.848H44.9998C44.2798 35.848 43.7278 35.928 43.3438 36.088C42.9758 36.248 42.7118 36.52 42.5518 36.904C42.3918 37.272 42.3118 37.816 42.3118 38.536V41.32C42.3118 42.024 42.3918 42.568 42.5518 42.952C42.7118 43.32 42.9838 43.584 43.3678 43.744C43.7518 43.904 44.2958 43.984 44.9998 43.984H46.9678Z" fill="#00A6FB"/>
</svg>
