<svg width="109" height="108" viewBox="0 0 109 108" fill="none" xmlns="http://www.w3.org/2000/svg">
<ellipse cx="54.4" cy="54" rx="54" ry="54" fill="#C4C4C4" fill-opacity="0.15"/>
<path d="M23.2052 63C21.9892 63 21.0772 62.704 20.4692 62.112C19.8772 61.504 19.5812 60.584 19.5812 59.352V47.112C19.5812 46.792 19.6692 46.544 19.8452 46.368C20.0212 46.192 20.2692 46.104 20.5892 46.104C20.9092 46.104 21.1572 46.192 21.3332 46.368C21.5092 46.544 21.5972 46.792 21.5972 47.112V59.352C21.5972 60.008 21.7012 60.448 21.9092 60.672C22.1332 60.88 22.5652 60.984 23.2052 60.984C23.8932 60.984 24.2372 61.32 24.2372 61.992C24.2532 62.312 24.1732 62.56 23.9972 62.736C23.8212 62.912 23.5572 63 23.2052 63ZM35.067 63C33.467 63 32.283 62.616 31.515 61.848C30.747 61.08 30.363 59.904 30.363 58.32V55.536C30.363 53.936 30.747 52.752 31.515 51.984C32.283 51.216 33.467 50.832 35.067 50.832H37.035C38.635 50.832 39.819 51.216 40.587 51.984C41.355 52.752 41.739 53.936 41.739 55.536V58.296C41.739 59.896 41.355 61.08 40.587 61.848C39.819 62.616 38.635 63 37.035 63H35.067ZM37.035 60.984C37.739 60.984 38.283 60.904 38.667 60.744C39.051 60.584 39.323 60.312 39.483 59.928C39.643 59.544 39.723 59 39.723 58.296V55.536C39.723 54.832 39.643 54.288 39.483 53.904C39.323 53.52 39.051 53.248 38.667 53.088C38.283 52.928 37.739 52.848 37.035 52.848H35.067C34.347 52.848 33.795 52.928 33.411 53.088C33.043 53.248 32.779 53.52 32.619 53.904C32.459 54.272 32.379 54.816 32.379 55.536V58.32C32.379 59.024 32.459 59.568 32.619 59.952C32.779 60.32 33.051 60.584 33.435 60.744C33.819 60.904 34.363 60.984 35.067 60.984H37.035ZM59.5419 50.832C60.2139 50.832 60.5499 51.168 60.5499 51.84V64.344C60.5499 65.528 60.2699 66.4 59.7099 66.96C59.1499 67.52 58.2779 67.8 57.0939 67.8H52.6299C50.6939 67.8 49.5739 67.008 49.2699 65.424C49.2539 65.376 49.2459 65.296 49.2459 65.184C49.2459 64.928 49.3339 64.72 49.5099 64.56C49.6859 64.416 49.9339 64.344 50.2539 64.344C50.5419 64.344 50.7579 64.416 50.9019 64.56C51.0459 64.72 51.1739 64.976 51.2859 65.328C51.3819 65.504 51.5259 65.624 51.7179 65.688C51.9259 65.752 52.2299 65.784 52.6299 65.784H57.0939C57.6859 65.784 58.0699 65.688 58.2459 65.496C58.4379 65.32 58.5339 64.936 58.5339 64.344V61.56C58.1019 62.024 57.5659 62.384 56.9259 62.64C56.2859 62.88 55.5739 63 54.7899 63H53.8779C52.2779 63 51.0939 62.616 50.3259 61.848C49.5579 61.08 49.1739 59.904 49.1739 58.32V55.536C49.1739 53.92 49.5579 52.728 50.3259 51.96C51.0939 51.192 52.2779 50.816 53.8779 50.832H55.8459C56.9979 50.832 57.8939 51.168 58.5339 51.84C58.5339 51.168 58.8699 50.832 59.5419 50.832ZM54.7899 60.984C55.9099 60.984 56.8139 60.848 57.5019 60.576C58.1899 60.288 58.5339 59.872 58.5339 59.328V54.528C58.5339 53.904 58.3099 53.472 57.8619 53.232C57.4139 52.976 56.7419 52.848 55.8459 52.848H53.8779C53.1739 52.832 52.6299 52.904 52.2459 53.064C51.8619 53.224 51.5899 53.496 51.4299 53.88C51.2699 54.264 51.1899 54.816 51.1899 55.536V58.32C51.1899 59.024 51.2699 59.568 51.4299 59.952C51.5899 60.32 51.8619 60.584 52.2459 60.744C52.6299 60.904 53.1739 60.984 53.8779 60.984H54.7899ZM69.9204 63C69.6004 63 69.3524 62.912 69.1764 62.736C69.0004 62.56 68.9124 62.312 68.9124 61.992V51.84C68.9124 51.52 69.0004 51.272 69.1764 51.096C69.3524 50.92 69.6004 50.832 69.9204 50.832C70.2404 50.832 70.4884 50.92 70.6644 51.096C70.8404 51.272 70.9284 51.52 70.9284 51.84V61.992C70.9284 62.312 70.8404 62.56 70.6644 62.736C70.4884 62.912 70.2404 63 69.9204 63ZM69.5844 48.864C69.2164 48.864 68.9284 48.76 68.7204 48.552C68.5284 48.344 68.4324 48.064 68.4324 47.712V46.992C68.4324 46.624 68.5284 46.352 68.7204 46.176C68.9284 45.984 69.2164 45.888 69.5844 45.888H70.2804C71.0004 45.888 71.3604 46.256 71.3604 46.992V47.712C71.3604 48.08 71.2644 48.368 71.0724 48.576C70.8964 48.768 70.6324 48.864 70.2804 48.864H69.5844ZM85.9522 50.832C87.5522 50.832 88.7362 51.216 89.5042 51.984C90.2722 52.752 90.6562 53.936 90.6562 55.536V61.992C90.6562 62.312 90.5682 62.56 90.3922 62.736C90.2162 62.912 89.9682 63 89.6482 63C89.3282 63 89.0802 62.912 88.9042 62.736C88.7282 62.56 88.6402 62.312 88.6402 61.992V55.536C88.6402 54.832 88.5602 54.288 88.4002 53.904C88.2402 53.52 87.9682 53.248 87.5842 53.088C87.2002 52.928 86.6562 52.848 85.9522 52.848H85.2802C84.2722 52.848 83.4162 52.968 82.7122 53.208C82.0242 53.432 81.6322 53.768 81.5362 54.216V61.992C81.5362 62.312 81.4482 62.56 81.2722 62.736C81.0962 62.912 80.8482 63 80.5282 63C80.2082 63 79.9602 62.912 79.7842 62.736C79.6082 62.56 79.5202 62.312 79.5202 61.992V51.84C79.5202 51.168 79.8562 50.832 80.5282 50.832C81.2002 50.832 81.5362 51.168 81.5362 51.84V52.248C82.3842 51.304 83.6322 50.832 85.2802 50.832H85.9522Z" fill="#00A6FB"/>
</svg>
