<svg width="239" height="50" viewBox="0 0 239 50" fill="none" xmlns="http://www.w3.org/2000/svg">
<rect y="8" width="239" height="35" fill="#C4C4C4" fill-opacity="0.15"/>
<path d="M26.1852 22.408C27.7052 22.408 28.8252 22.768 29.5452 23.488C30.2652 24.208 30.6252 25.328 30.6252 26.848V29.56C30.6252 31.08 30.2652 32.2 29.5452 32.92C28.8252 33.64 27.7052 34 26.1852 34H21.2652V38.056C21.2652 38.552 21.0172 38.8 20.5212 38.8C20.0252 38.8 19.7772 38.552 19.7772 38.056V23.152C19.7772 22.656 20.0252 22.408 20.5212 22.408C21.0172 22.408 21.2652 22.656 21.2652 23.152V23.92C22.0812 22.912 23.4172 22.408 25.2732 22.408H26.1852ZM29.1372 26.848C29.1372 25.728 28.9212 24.96 28.4892 24.544C28.0572 24.112 27.2892 23.896 26.1852 23.896H25.2732C24.0572 23.896 23.0892 24.08 22.3692 24.448C21.6652 24.8 21.2972 25.336 21.2652 26.056V32.512H26.1852C27.2892 32.512 28.0572 32.304 28.4892 31.888C28.9212 31.456 29.1372 30.68 29.1372 29.56V26.848ZM52.511 22.408C54.031 22.408 55.151 22.768 55.871 23.488C56.591 24.208 56.951 25.328 56.951 26.848V33.256C56.951 33.752 56.703 34 56.207 34C55.711 34 55.463 33.752 55.463 33.256V32.272C54.647 33.424 53.311 34 51.455 34H50.111C48.831 34 47.887 33.704 47.279 33.112C46.687 32.504 46.391 31.56 46.391 30.28C46.391 29 46.695 28.064 47.303 27.472C47.911 26.864 48.847 26.56 50.111 26.56H55.463C55.431 25.552 55.191 24.856 54.743 24.472C54.311 24.088 53.567 23.896 52.511 23.896H51.119C50.159 23.896 49.455 23.992 49.007 24.184C48.559 24.36 48.271 24.672 48.143 25.12C48.063 25.36 47.967 25.536 47.855 25.648C47.743 25.744 47.575 25.792 47.351 25.792C47.111 25.792 46.919 25.728 46.775 25.6C46.631 25.456 46.583 25.264 46.631 25.024C46.775 24.128 47.215 23.472 47.951 23.056C48.687 22.624 49.743 22.408 51.119 22.408H52.511ZM55.463 30.088V28.048H50.111C49.247 28.048 48.655 28.208 48.335 28.528C48.031 28.832 47.879 29.416 47.879 30.28C47.879 31.144 48.031 31.736 48.335 32.056C48.655 32.36 49.247 32.512 50.111 32.512H51.455C52.623 32.512 53.527 32.336 54.167 31.984C54.823 31.616 55.231 31.064 55.391 30.328L55.463 30.088ZM75.9473 34C74.9553 34 74.1873 33.792 73.6433 33.376C73.0993 32.944 72.7633 32.296 72.6353 31.432C72.6033 31.192 72.6513 31.008 72.7793 30.88C72.9233 30.736 73.1233 30.664 73.3793 30.664C73.6033 30.664 73.7713 30.728 73.8833 30.856C74.0113 30.968 74.0993 31.144 74.1473 31.384C74.2113 31.8 74.3793 32.096 74.6513 32.272C74.9393 32.432 75.3713 32.512 75.9473 32.512H79.8833C80.5873 32.512 81.0673 32.384 81.3233 32.128C81.5953 31.856 81.7313 31.368 81.7313 30.664C81.7313 29.944 81.5953 29.456 81.3233 29.2C81.0673 28.944 80.5873 28.816 79.8833 28.816H75.9953C74.9233 28.816 74.1233 28.552 73.5953 28.024C73.0673 27.496 72.8033 26.688 72.8033 25.6C72.8033 24.512 73.0593 23.712 73.5713 23.2C74.0993 22.672 74.9073 22.408 75.9953 22.408H79.7633C80.6913 22.408 81.4113 22.608 81.9233 23.008C82.4353 23.392 82.7473 23.984 82.8593 24.784C82.9073 25.024 82.8593 25.216 82.7153 25.36C82.5873 25.504 82.3953 25.576 82.1393 25.576C81.9153 25.576 81.7393 25.52 81.6113 25.408C81.4993 25.28 81.4193 25.096 81.3713 24.856C81.3073 24.488 81.1473 24.24 80.8913 24.112C80.6513 23.968 80.2753 23.896 79.7633 23.896H75.9953C75.3233 23.896 74.8673 24.016 74.6273 24.256C74.4033 24.48 74.2913 24.928 74.2913 25.6C74.2913 26.256 74.4113 26.712 74.6513 26.968C74.8913 27.208 75.3393 27.328 75.9953 27.328H79.8833C81.0193 27.328 81.8593 27.6 82.4033 28.144C82.9473 28.688 83.2193 29.528 83.2193 30.664C83.2193 31.784 82.9473 32.624 82.4033 33.184C81.8593 33.728 81.0193 34 79.8833 34H75.9473ZM101.729 34C100.737 34 99.9686 33.792 99.4246 33.376C98.8806 32.944 98.5446 32.296 98.4166 31.432C98.3846 31.192 98.4326 31.008 98.5606 30.88C98.7046 30.736 98.9046 30.664 99.1606 30.664C99.3846 30.664 99.5526 30.728 99.6646 30.856C99.7926 30.968 99.8806 31.144 99.9286 31.384C99.9926 31.8 100.161 32.096 100.433 32.272C100.721 32.432 101.153 32.512 101.729 32.512H105.665C106.369 32.512 106.849 32.384 107.105 32.128C107.377 31.856 107.513 31.368 107.513 30.664C107.513 29.944 107.377 29.456 107.105 29.2C106.849 28.944 106.369 28.816 105.665 28.816H101.777C100.705 28.816 99.9046 28.552 99.3766 28.024C98.8486 27.496 98.5846 26.688 98.5846 25.6C98.5846 24.512 98.8406 23.712 99.3526 23.2C99.8806 22.672 100.689 22.408 101.777 22.408H105.545C106.473 22.408 107.193 22.608 107.705 23.008C108.217 23.392 108.529 23.984 108.641 24.784C108.689 25.024 108.641 25.216 108.497 25.36C108.369 25.504 108.177 25.576 107.921 25.576C107.697 25.576 107.521 25.52 107.393 25.408C107.281 25.28 107.201 25.096 107.153 24.856C107.089 24.488 106.929 24.24 106.673 24.112C106.433 23.968 106.057 23.896 105.545 23.896H101.777C101.105 23.896 100.649 24.016 100.409 24.256C100.185 24.48 100.073 24.928 100.073 25.6C100.073 26.256 100.193 26.712 100.433 26.968C100.673 27.208 101.121 27.328 101.777 27.328H105.665C106.801 27.328 107.641 27.6 108.185 28.144C108.729 28.688 109.001 29.528 109.001 30.664C109.001 31.784 108.729 32.624 108.185 33.184C107.641 33.728 106.801 34 105.665 34H101.729ZM138.363 22.48C138.715 22.608 138.891 22.816 138.891 23.104C138.891 23.184 138.867 23.288 138.819 23.416L135.123 33.4C134.979 33.8 134.691 34 134.259 34C133.795 34 133.507 33.792 133.395 33.376L130.875 25.192L128.091 33.4C127.931 33.8 127.651 34 127.251 34C126.835 34 126.555 33.8 126.411 33.4L123.051 23.416C123.003 23.288 122.979 23.184 122.979 23.104C122.979 22.784 123.155 22.576 123.507 22.48C123.619 22.432 123.723 22.408 123.819 22.408C124.139 22.408 124.347 22.584 124.443 22.936L127.347 31.528L130.131 23.08C130.243 22.68 130.523 22.48 130.971 22.48C131.371 22.48 131.643 22.68 131.787 23.08L134.355 31.48L137.403 22.936C137.515 22.584 137.723 22.408 138.027 22.408C138.123 22.408 138.235 22.432 138.363 22.48ZM157.426 34C155.906 34 154.786 33.648 154.066 32.944C153.346 32.224 152.986 31.104 152.986 29.584V26.848C152.986 25.312 153.346 24.192 154.066 23.488C154.786 22.768 155.906 22.408 157.426 22.408H159.394C160.914 22.408 162.034 22.768 162.754 23.488C163.474 24.208 163.834 25.328 163.834 26.848V29.56C163.834 31.08 163.474 32.2 162.754 32.92C162.034 33.64 160.914 34 159.394 34H157.426ZM159.394 32.512C160.514 32.512 161.282 32.304 161.698 31.888C162.13 31.456 162.346 30.68 162.346 29.56V26.848C162.346 25.728 162.13 24.96 161.698 24.544C161.282 24.112 160.514 23.896 159.394 23.896H157.426C156.674 23.896 156.082 23.984 155.65 24.16C155.234 24.336 154.93 24.64 154.738 25.072C154.562 25.488 154.474 26.08 154.474 26.848V29.584C154.474 30.688 154.682 31.456 155.098 31.888C155.53 32.304 156.306 32.512 157.426 32.512H159.394ZM186.114 22.408C186.594 22.408 186.834 22.656 186.834 23.152C186.834 23.648 186.594 23.896 186.114 23.896C184.674 23.896 183.562 24.208 182.778 24.832C182.01 25.456 181.61 26.336 181.578 27.472V33.256C181.578 33.752 181.33 34 180.834 34C180.338 34 180.09 33.752 180.09 33.256V23.152C180.09 22.656 180.338 22.408 180.834 22.408C181.33 22.408 181.578 22.656 181.578 23.152V24.712C182.026 23.96 182.634 23.392 183.402 23.008C184.17 22.608 185.074 22.408 186.114 22.408ZM210.715 17.272C211.211 17.272 211.459 17.52 211.459 18.016V33.256C211.459 33.752 211.211 34 210.715 34C210.219 34 209.971 33.752 209.971 33.256V32.536C209.235 33.512 207.899 34 205.963 34H205.051C203.531 34 202.411 33.64 201.691 32.92C200.971 32.2 200.611 31.08 200.611 29.56V26.848C200.611 25.328 200.971 24.208 201.691 23.488C202.411 22.768 203.531 22.408 205.051 22.408H209.971V18.016C209.971 17.52 210.219 17.272 210.715 17.272ZM205.963 32.512C207.195 32.512 208.171 32.328 208.891 31.96C209.611 31.592 209.971 31.056 209.971 30.352V23.896H205.051C203.931 23.896 203.155 24.112 202.723 24.544C202.307 24.976 202.099 25.744 202.099 26.848V29.56C202.099 30.68 202.315 31.456 202.747 31.888C203.179 32.304 203.947 32.512 205.051 32.512H205.963Z" fill="#00A6FB"/>
</svg>
