<svg width="135" height="29" viewBox="0 0 135 29" fill="none" xmlns="http://www.w3.org/2000/svg">
<path d="M7.3928 12.108C7.5968 12.108 7.7528 12.168 7.8608 12.288C7.9808 12.396 8.0408 12.552 8.0408 12.756C8.0408 12.96 7.9808 13.122 7.8608 13.242C7.7528 13.35 7.5968 13.404 7.3928 13.404C6.3128 13.404 5.4848 13.626 4.9088 14.07C4.3448 14.514 4.0628 15.126 4.0628 15.906V20.352C4.0628 20.556 4.0028 20.718 3.8828 20.838C3.7748 20.946 3.6188 21 3.4148 21C3.2108 21 3.0488 20.946 2.9288 20.838C2.8208 20.718 2.7668 20.556 2.7668 20.352V12.756C2.7668 12.552 2.8208 12.396 2.9288 12.288C3.0488 12.168 3.2108 12.108 3.4148 12.108C3.6188 12.108 3.7748 12.168 3.8828 12.288C4.0028 12.396 4.0628 12.552 4.0628 12.756V13.71C4.4108 13.182 4.8668 12.786 5.4308 12.522C5.9948 12.246 6.6488 12.108 7.3928 12.108ZM19.6989 17.076V17.598C19.6989 18.138 19.7649 18.558 19.8969 18.858C20.0289 19.158 20.2449 19.374 20.5449 19.506C20.8449 19.638 21.2709 19.704 21.8229 19.704H23.2989C23.9709 19.704 24.4629 19.632 24.7749 19.488C25.0869 19.344 25.2849 19.092 25.3689 18.732C25.4169 18.528 25.4889 18.378 25.5849 18.282C25.6929 18.174 25.8489 18.12 26.0529 18.12C26.2689 18.12 26.4309 18.18 26.5389 18.3C26.6589 18.408 26.7009 18.57 26.6649 18.786C26.5449 19.542 26.2089 20.1 25.6569 20.46C25.1049 20.82 24.3189 21 23.2989 21H21.8229C20.6589 21 19.7949 20.724 19.2309 20.172C18.6789 19.62 18.4029 18.762 18.4029 17.598V15.528C18.4029 14.352 18.6789 13.488 19.2309 12.936C19.7949 12.372 20.6589 12.096 21.8229 12.108H23.2989C24.4749 12.108 25.3389 12.384 25.8909 12.936C26.4429 13.488 26.7189 14.352 26.7189 15.528V16.428C26.7189 16.632 26.6589 16.794 26.5389 16.914C26.4309 17.022 26.2749 17.076 26.0709 17.076H19.6989ZM19.6989 15.78H25.4229V15.528C25.4229 14.976 25.3569 14.55 25.2249 14.25C25.0929 13.95 24.8769 13.734 24.5769 13.602C24.2769 13.47 23.8509 13.404 23.2989 13.404H21.8229C21.2709 13.392 20.8449 13.452 20.5449 13.584C20.2449 13.716 20.0289 13.938 19.8969 14.25C19.7649 14.55 19.6989 14.976 19.6989 15.528V15.78ZM46.2682 12.108C46.4722 12.108 46.6282 12.168 46.7362 12.288C46.8562 12.396 46.9162 12.552 46.9162 12.756V22.116C46.9162 22.968 46.7122 23.592 46.3042 23.988C45.9082 24.396 45.2842 24.6 44.4322 24.6H41.0842C40.3642 24.6 39.8002 24.45 39.3922 24.15C38.9962 23.862 38.7502 23.412 38.6542 22.8C38.6182 22.584 38.6542 22.416 38.7622 22.296C38.8822 22.176 39.0562 22.116 39.2842 22.116C39.4762 22.116 39.6142 22.164 39.6982 22.26C39.7942 22.356 39.8782 22.518 39.9502 22.746C40.0102 22.962 40.1242 23.106 40.2922 23.178C40.4602 23.262 40.7242 23.304 41.0842 23.304H44.4322C44.9122 23.304 45.2302 23.226 45.3862 23.07C45.5422 22.914 45.6202 22.596 45.6202 22.116V19.848C44.9962 20.616 44.0242 21 42.7042 21H42.0202C40.8562 21 39.9922 20.724 39.4282 20.172C38.8762 19.62 38.6002 18.762 38.6002 17.598V15.528C38.6002 14.352 38.8762 13.488 39.4282 12.936C39.9922 12.372 40.8562 12.096 42.0202 12.108H43.4962C44.4442 12.108 45.1522 12.384 45.6202 12.936V12.756C45.6202 12.552 45.6742 12.396 45.7822 12.288C45.9022 12.168 46.0642 12.108 46.2682 12.108ZM42.7042 19.704C43.5922 19.704 44.3002 19.584 44.8282 19.344C45.3562 19.092 45.6202 18.726 45.6202 18.246V14.88C45.6202 14.34 45.4462 13.962 45.0982 13.746C44.7502 13.518 44.2162 13.404 43.4962 13.404H42.0202C41.4682 13.392 41.0422 13.452 40.7422 13.584C40.4422 13.716 40.2262 13.938 40.0942 14.25C39.9622 14.55 39.8962 14.976 39.8962 15.528V17.598C39.8962 18.138 39.9622 18.558 40.0942 18.858C40.2262 19.158 40.4422 19.374 40.7422 19.506C41.0422 19.638 41.4682 19.704 42.0202 19.704H42.7042ZM59.9812 21C59.7772 21 59.6152 20.946 59.4952 20.838C59.3872 20.718 59.3332 20.556 59.3332 20.352V12.756C59.3332 12.552 59.3872 12.396 59.4952 12.288C59.6152 12.168 59.7772 12.108 59.9812 12.108C60.1852 12.108 60.3412 12.168 60.4492 12.288C60.5692 12.396 60.6292 12.552 60.6292 12.756V20.352C60.6292 20.556 60.5692 20.718 60.4492 20.838C60.3412 20.946 60.1852 21 59.9812 21ZM59.7472 10.578C59.4952 10.578 59.3032 10.512 59.1712 10.38C59.0392 10.236 58.9732 10.044 58.9732 9.804V9.3C58.9732 8.808 59.2312 8.562 59.7472 8.562H60.2152C60.4552 8.562 60.6352 8.628 60.7552 8.76C60.8872 8.88 60.9532 9.06 60.9532 9.3V9.804C60.9532 10.044 60.8872 10.236 60.7552 10.38C60.6232 10.512 60.4432 10.578 60.2152 10.578H59.7472ZM75.2715 21C74.5155 21 73.9275 20.844 73.5075 20.532C73.0875 20.208 72.8235 19.728 72.7155 19.092C72.6795 18.876 72.7215 18.708 72.8415 18.588C72.9615 18.468 73.1295 18.408 73.3455 18.408C73.5495 18.408 73.6995 18.462 73.7955 18.57C73.8915 18.666 73.9695 18.822 74.0295 19.038C74.0895 19.29 74.2095 19.464 74.3895 19.56C74.5815 19.656 74.8755 19.704 75.2715 19.704H78.2235C78.7275 19.704 79.0695 19.62 79.2495 19.452C79.4295 19.272 79.5195 18.924 79.5195 18.408C79.5195 17.892 79.4295 17.55 79.2495 17.382C79.0695 17.202 78.7275 17.112 78.2235 17.112H75.3255C73.6575 17.112 72.8235 16.278 72.8235 14.61C72.8235 13.758 73.0275 13.128 73.4355 12.72C73.8555 12.312 74.4855 12.108 75.3255 12.108H78.1335C79.5255 12.108 80.3295 12.702 80.5455 13.89C80.5815 14.106 80.5395 14.274 80.4195 14.394C80.2995 14.514 80.1315 14.574 79.9155 14.574C79.7235 14.574 79.5735 14.526 79.4655 14.43C79.3695 14.334 79.2915 14.178 79.2315 13.962C79.1715 13.746 79.0575 13.602 78.8895 13.53C78.7215 13.446 78.4695 13.404 78.1335 13.404H75.3255C74.8455 13.404 74.5215 13.482 74.3535 13.638C74.1975 13.794 74.1195 14.118 74.1195 14.61C74.1195 15.078 74.1975 15.396 74.3535 15.564C74.5215 15.732 74.8455 15.816 75.3255 15.816H78.2235C79.0995 15.816 79.7475 16.032 80.1675 16.464C80.5995 16.884 80.8155 17.532 80.8155 18.408C80.8155 19.284 80.5995 19.938 80.1675 20.37C79.7475 20.79 79.0995 21 78.2235 21H75.2715ZM96.5803 19.704C97.0123 19.704 97.2283 19.92 97.2283 20.352C97.2283 20.556 97.1683 20.718 97.0483 20.838C96.9403 20.946 96.7843 21 96.5803 21C95.4283 21 94.5763 20.73 94.0243 20.19C93.4843 19.65 93.2143 18.804 93.2143 17.652V13.404H92.2603C92.0563 13.404 91.8943 13.35 91.7743 13.242C91.6663 13.122 91.6123 12.96 91.6123 12.756C91.6123 12.552 91.6663 12.396 91.7743 12.288C91.8943 12.168 92.0563 12.108 92.2603 12.108H93.2143V10.56C93.2143 10.128 93.4303 9.912 93.8623 9.912C94.2943 9.912 94.5103 10.128 94.5103 10.56V12.108H96.6523C96.8563 12.108 97.0123 12.168 97.1203 12.288C97.2403 12.396 97.3003 12.552 97.3003 12.756C97.3003 12.96 97.2403 13.122 97.1203 13.242C97.0123 13.35 96.8563 13.404 96.6523 13.404H94.5103V17.652C94.5103 18.192 94.5703 18.612 94.6903 18.912C94.8223 19.2 95.0323 19.404 95.3203 19.524C95.6203 19.644 96.0403 19.704 96.5803 19.704ZM109.224 17.076V17.598C109.224 18.138 109.29 18.558 109.422 18.858C109.554 19.158 109.77 19.374 110.07 19.506C110.37 19.638 110.796 19.704 111.348 19.704H112.824C113.496 19.704 113.988 19.632 114.3 19.488C114.612 19.344 114.81 19.092 114.894 18.732C114.942 18.528 115.014 18.378 115.11 18.282C115.218 18.174 115.374 18.12 115.578 18.12C115.794 18.12 115.956 18.18 116.064 18.3C116.184 18.408 116.226 18.57 116.19 18.786C116.07 19.542 115.734 20.1 115.182 20.46C114.63 20.82 113.844 21 112.824 21H111.348C110.184 21 109.32 20.724 108.756 20.172C108.204 19.62 107.928 18.762 107.928 17.598V15.528C107.928 14.352 108.204 13.488 108.756 12.936C109.32 12.372 110.184 12.096 111.348 12.108H112.824C114 12.108 114.864 12.384 115.416 12.936C115.968 13.488 116.244 14.352 116.244 15.528V16.428C116.244 16.632 116.184 16.794 116.064 16.914C115.956 17.022 115.8 17.076 115.596 17.076H109.224ZM109.224 15.78H114.948V15.528C114.948 14.976 114.882 14.55 114.75 14.25C114.618 13.95 114.402 13.734 114.102 13.602C113.802 13.47 113.376 13.404 112.824 13.404H111.348C110.796 13.392 110.37 13.452 110.07 13.584C109.77 13.716 109.554 13.938 109.422 14.25C109.29 14.55 109.224 14.976 109.224 15.528V15.78ZM133.112 12.108C133.316 12.108 133.472 12.168 133.58 12.288C133.7 12.396 133.76 12.552 133.76 12.756C133.76 12.96 133.7 13.122 133.58 13.242C133.472 13.35 133.316 13.404 133.112 13.404C132.032 13.404 131.204 13.626 130.628 14.07C130.064 14.514 129.782 15.126 129.782 15.906V20.352C129.782 20.556 129.722 20.718 129.602 20.838C129.494 20.946 129.338 21 129.134 21C128.93 21 128.768 20.946 128.648 20.838C128.54 20.718 128.486 20.556 128.486 20.352V12.756C128.486 12.552 128.54 12.396 128.648 12.288C128.768 12.168 128.93 12.108 129.134 12.108C129.338 12.108 129.494 12.168 129.602 12.288C129.722 12.396 129.782 12.552 129.782 12.756V13.71C130.13 13.182 130.586 12.786 131.15 12.522C131.714 12.246 132.368 12.108 133.112 12.108Z" fill="#00A6FB"/>
</svg>
