<svg width="109" height="108" viewBox="0 0 109 108" fill="none" xmlns="http://www.w3.org/2000/svg">
<g id="submit">
<g id="register button">
<g id="Group 2">
<ellipse id="Ellipse 7" cx="54.3999" cy="54" rx="54" ry="54" fill="#C4C4C4" fill-opacity="0.15"/>
<path id="submit_2" d="M16.2373 61C14.544 61 13.5573 60.3 13.2773 58.9C13.264 58.86 13.2573 58.8 13.2573 58.72C13.2573 58.4933 13.3307 58.32 13.4773 58.2C13.6373 58.0667 13.844 58 14.0973 58C14.3507 58 14.544 58.0667 14.6773 58.2C14.8107 58.32 14.9173 58.5267 14.9973 58.82C15.0773 59.02 15.204 59.1533 15.3773 59.22C15.564 59.2867 15.8507 59.32 16.2373 59.32H19.5173C20.0373 59.32 20.384 59.2333 20.5573 59.06C20.744 58.8867 20.8373 58.5333 20.8373 58C20.8373 57.4667 20.744 57.1133 20.5573 56.94C20.384 56.7667 20.0373 56.68 19.5173 56.68H16.2973C14.364 56.68 13.3973 55.7133 13.3973 53.78C13.3973 52.7933 13.6373 52.06 14.1173 51.58C14.5973 51.1 15.324 50.86 16.2973 50.86H19.4173C20.9907 50.86 21.9173 51.52 22.1973 52.84C22.2107 52.88 22.2173 52.94 22.2173 53.02C22.2173 53.2333 22.1373 53.4067 21.9773 53.54C21.8307 53.66 21.6307 53.72 21.3773 53.72C21.124 53.72 20.9307 53.66 20.7973 53.54C20.6773 53.4067 20.5773 53.2067 20.4973 52.94C20.4173 52.78 20.2973 52.6733 20.1373 52.62C19.9773 52.5667 19.7373 52.54 19.4173 52.54H16.2973C15.9507 52.54 15.6907 52.5733 15.5173 52.64C15.344 52.6933 15.224 52.8067 15.1573 52.98C15.104 53.1533 15.0773 53.42 15.0773 53.78C15.0773 54.26 15.1573 54.5867 15.3173 54.76C15.4773 54.92 15.804 55 16.2973 55H19.5173C21.5173 55 22.5173 56 22.5173 58C22.5173 60 21.5173 61 19.5173 61H16.2373ZM37.3239 50.86C37.5906 50.86 37.7972 50.9333 37.9439 51.08C38.0906 51.2267 38.1639 51.4333 38.1639 51.7V60.16C38.1639 60.72 37.8839 61 37.3239 61C36.7639 61 36.4839 60.72 36.4839 60.16V59.82C35.7772 60.6067 34.7372 61 33.3639 61H32.8039C31.4706 61 30.4839 60.68 29.8439 60.04C29.2039 59.4 28.8839 58.4133 28.8839 57.08V51.7C28.8839 51.4333 28.9572 51.2267 29.1039 51.08C29.2506 50.9333 29.4572 50.86 29.7239 50.86C29.9906 50.86 30.1972 50.9333 30.3439 51.08C30.4906 51.2267 30.5639 51.4333 30.5639 51.7V57.08C30.5639 57.6667 30.6306 58.12 30.7639 58.44C30.8972 58.76 31.1239 58.9867 31.4439 59.12C31.7639 59.2533 32.2172 59.32 32.8039 59.32H33.3639C34.2039 59.32 34.9106 59.2267 35.4839 59.04C36.0706 58.84 36.4039 58.5533 36.4839 58.18V51.7C36.4839 51.4333 36.5572 51.2267 36.7039 51.08C36.8506 50.9333 37.0572 50.86 37.3239 50.86ZM50.8861 50.86C52.2194 50.86 53.2061 51.18 53.8461 51.82C54.4861 52.46 54.8061 53.4467 54.8061 54.78V57.08C54.8061 58.4133 54.4861 59.4 53.8461 60.04C53.2061 60.68 52.2194 61 50.8861 61H50.1261C48.7528 61 47.7128 60.6467 47.0061 59.94V60.16C47.0061 60.4267 46.9328 60.6333 46.7861 60.78C46.6394 60.9267 46.4328 61 46.1661 61C45.8994 61 45.6928 60.9267 45.5461 60.78C45.3994 60.6333 45.3261 60.4267 45.3261 60.16V47.76C45.3261 47.4933 45.3994 47.2867 45.5461 47.14C45.6928 46.9933 45.8994 46.92 46.1661 46.92C46.4328 46.92 46.6394 46.9933 46.7861 47.14C46.9328 47.2867 47.0061 47.4933 47.0061 47.76V51.92C47.7128 51.2133 48.7528 50.86 50.1261 50.86H50.8861ZM53.1261 54.78C53.1261 54.1933 53.0594 53.74 52.9261 53.42C52.7928 53.1 52.5661 52.8733 52.2461 52.74C51.9261 52.6067 51.4728 52.54 50.8861 52.54H50.1261C49.2061 52.54 48.4528 52.66 47.8661 52.9C47.2928 53.1267 47.0061 53.4667 47.0061 53.92V57.94C47.0061 58.3933 47.2928 58.74 47.8661 58.98C48.4528 59.2067 49.2061 59.32 50.1261 59.32H50.8861C51.4728 59.32 51.9261 59.2533 52.2461 59.12C52.5661 58.9867 52.7928 58.76 52.9261 58.44C53.0594 58.12 53.1261 57.6667 53.1261 57.08V54.78ZM72.5902 50.86C73.8568 50.86 74.7635 51.16 75.3102 51.76C75.8568 52.3467 76.1302 53.3267 76.1302 54.7V60.16C76.1302 60.72 75.8502 61 75.2902 61C74.7302 61 74.4502 60.72 74.4502 60.16V54.7C74.4502 53.94 74.3035 53.3933 74.0102 53.06C73.7168 52.7133 73.2435 52.54 72.5902 52.54H71.7702C71.0102 52.54 70.4635 52.7133 70.1302 53.06C69.8102 53.3933 69.6502 53.94 69.6502 54.7V60.16C69.6502 60.72 69.3702 61 68.8102 61C68.2502 61 67.9702 60.72 67.9702 60.16V54.7C67.9702 53.94 67.8235 53.3933 67.5302 53.06C67.2368 52.7133 66.7635 52.54 66.1102 52.54H65.2902C64.5302 52.54 63.9835 52.7133 63.6502 53.06C63.3302 53.3933 63.1702 53.94 63.1702 54.7V60.16C63.1702 60.72 62.8902 61 62.3302 61C61.7702 61 61.4902 60.72 61.4902 60.16V51.7C61.4902 51.14 61.7702 50.86 62.3302 50.86C62.8902 50.86 63.1702 51.14 63.1702 51.7V52.16C63.5168 51.7067 63.9035 51.38 64.3302 51.18C64.7568 50.9667 65.2635 50.86 65.8502 50.86H66.1102C66.9368 50.86 67.5835 50.9733 68.0502 51.2C68.5302 51.4267 68.8902 51.8 69.1302 52.32C69.4902 51.7867 69.8635 51.4133 70.2502 51.2C70.6502 50.9733 71.1568 50.86 71.7702 50.86H72.5902ZM83.9239 61C83.6572 61 83.4506 60.9267 83.3039 60.78C83.1572 60.6333 83.0839 60.4267 83.0839 60.16V51.7C83.0839 51.4333 83.1572 51.2267 83.3039 51.08C83.4506 50.9333 83.6572 50.86 83.9239 50.86C84.1906 50.86 84.3972 50.9333 84.5439 51.08C84.6906 51.2267 84.7639 51.4333 84.7639 51.7V60.16C84.7639 60.4267 84.6906 60.6333 84.5439 60.78C84.3972 60.9267 84.1906 61 83.9239 61ZM83.6439 49.22C83.3372 49.22 83.0972 49.1333 82.9239 48.96C82.7639 48.7867 82.6839 48.5533 82.6839 48.26V47.66C82.6839 47.3533 82.7639 47.1267 82.9239 46.98C83.0972 46.82 83.3372 46.74 83.6439 46.74H84.2239C84.8239 46.74 85.1239 47.0467 85.1239 47.66V48.26C85.1239 48.5667 85.0439 48.8067 84.8839 48.98C84.7372 49.14 84.5172 49.22 84.2239 49.22H83.6439ZM96.2038 59.32C96.7638 59.32 97.0438 59.6 97.0438 60.16C97.0438 60.4267 96.9704 60.6333 96.8238 60.78C96.6771 60.9267 96.4704 61 96.2038 61C94.8838 61 93.9104 60.6867 93.2838 60.06C92.6571 59.4333 92.3438 58.4667 92.3438 57.16V52.54H91.3638C91.0971 52.54 90.8904 52.4667 90.7438 52.32C90.5971 52.1733 90.5238 51.9667 90.5238 51.7C90.5238 51.14 90.8038 50.86 91.3638 50.86H92.3438V49.4C92.3438 49.1333 92.4171 48.9267 92.5638 48.78C92.7104 48.6333 92.9171 48.56 93.1838 48.56C93.4504 48.56 93.6571 48.6333 93.8038 48.78C93.9504 48.9267 94.0238 49.1333 94.0238 49.4V50.86H96.3238C96.8838 50.86 97.1638 51.14 97.1638 51.7C97.1638 51.9667 97.0904 52.1733 96.9438 52.32C96.7971 52.4667 96.5904 52.54 96.3238 52.54H94.0238V57.16C94.0238 57.7333 94.0904 58.1733 94.2238 58.48C94.3571 58.7867 94.5771 59.0067 94.8838 59.14C95.1904 59.26 95.6304 59.32 96.2038 59.32Z" fill="#00A6FB"/>
</g>
</g>
</g>
</svg>
