<svg width="322" height="50" viewBox="0 0 322 50" fill="none" xmlns="http://www.w3.org/2000/svg">
<rect x="46" y="8" width="239" height="35" fill="#C4C4C4" fill-opacity="0.15"/>
<path d="M72.0887 22.408C72.5847 22.408 72.8327 22.656 72.8327 23.152V33.256C72.8327 33.752 72.5847 34 72.0887 34C71.5927 34 71.3447 33.752 71.3447 33.256V32.392C70.5447 33.464 69.2087 34 67.3367 34H66.6647C65.1447 34 64.0247 33.64 63.3047 32.92C62.5847 32.2 62.2247 31.08 62.2247 29.56V23.152C62.2247 22.656 62.4727 22.408 62.9687 22.408C63.4647 22.408 63.7127 22.656 63.7127 23.152V29.56C63.7127 30.68 63.9287 31.456 64.3607 31.888C64.7927 32.304 65.5607 32.512 66.6647 32.512H67.3367C68.5687 32.512 69.5367 32.336 70.2407 31.984C70.9447 31.616 71.3127 31.072 71.3447 30.352V23.152C71.3447 22.656 71.5927 22.408 72.0887 22.408ZM92.0802 34C91.0882 34 90.3202 33.792 89.7762 33.376C89.2322 32.944 88.8962 32.296 88.7682 31.432C88.7362 31.192 88.7842 31.008 88.9122 30.88C89.0562 30.736 89.2562 30.664 89.5122 30.664C89.7362 30.664 89.9042 30.728 90.0162 30.856C90.1442 30.968 90.2322 31.144 90.2802 31.384C90.3442 31.8 90.5122 32.096 90.7842 32.272C91.0722 32.432 91.5042 32.512 92.0802 32.512H96.0162C96.7202 32.512 97.2002 32.384 97.4562 32.128C97.7282 31.856 97.8642 31.368 97.8642 30.664C97.8642 29.944 97.7282 29.456 97.4562 29.2C97.2002 28.944 96.7202 28.816 96.0162 28.816H92.1282C91.0562 28.816 90.2562 28.552 89.7282 28.024C89.2002 27.496 88.9362 26.688 88.9362 25.6C88.9362 24.512 89.1922 23.712 89.7042 23.2C90.2322 22.672 91.0402 22.408 92.1282 22.408H95.8962C96.8242 22.408 97.5442 22.608 98.0562 23.008C98.5682 23.392 98.8802 23.984 98.9922 24.784C99.0402 25.024 98.9922 25.216 98.8482 25.36C98.7202 25.504 98.5282 25.576 98.2722 25.576C98.0482 25.576 97.8722 25.52 97.7442 25.408C97.6322 25.28 97.5522 25.096 97.5042 24.856C97.4402 24.488 97.2802 24.24 97.0242 24.112C96.7842 23.968 96.4082 23.896 95.8962 23.896H92.1282C91.4562 23.896 91.0002 24.016 90.7602 24.256C90.5362 24.48 90.4242 24.928 90.4242 25.6C90.4242 26.256 90.5442 26.712 90.7842 26.968C91.0242 27.208 91.4722 27.328 92.1282 27.328H96.0162C97.1522 27.328 97.9922 27.6 98.5362 28.144C99.0802 28.688 99.3522 29.528 99.3522 30.664C99.3522 31.784 99.0802 32.624 98.5362 33.184C97.9922 33.728 97.1522 34 96.0162 34H92.0802ZM116.349 28.792V29.584C116.349 30.688 116.557 31.456 116.973 31.888C117.405 32.304 118.181 32.512 119.301 32.512H121.269C122.213 32.512 122.901 32.4 123.333 32.176C123.781 31.936 124.061 31.544 124.173 31C124.205 30.76 124.277 30.584 124.389 30.472C124.517 30.344 124.701 30.28 124.941 30.28C125.197 30.28 125.389 30.352 125.517 30.496C125.645 30.624 125.693 30.808 125.661 31.048C125.533 32.056 125.109 32.8 124.389 33.28C123.669 33.76 122.629 34 121.269 34H119.301C117.781 34 116.661 33.648 115.941 32.944C115.221 32.224 114.861 31.104 114.861 29.584V26.848C114.861 25.312 115.221 24.184 115.941 23.464C116.661 22.744 117.781 22.392 119.301 22.408H121.269C122.789 22.408 123.909 22.768 124.629 23.488C125.349 24.208 125.709 25.328 125.709 26.848V28.048C125.709 28.544 125.461 28.792 124.965 28.792H116.349ZM116.349 27.304H124.221V26.848C124.221 25.728 124.005 24.96 123.573 24.544C123.157 24.112 122.389 23.896 121.269 23.896H119.301C118.549 23.88 117.957 23.968 117.525 24.16C117.109 24.336 116.805 24.64 116.613 25.072C116.437 25.488 116.349 26.08 116.349 26.848V27.304ZM147.989 22.408C148.469 22.408 148.709 22.656 148.709 23.152C148.709 23.648 148.469 23.896 147.989 23.896C146.549 23.896 145.437 24.208 144.653 24.832C143.885 25.456 143.485 26.336 143.453 27.472V33.256C143.453 33.752 143.205 34 142.709 34C142.213 34 141.965 33.752 141.965 33.256V23.152C141.965 22.656 142.213 22.408 142.709 22.408C143.205 22.408 143.453 22.656 143.453 23.152V24.712C143.901 23.96 144.509 23.392 145.277 23.008C146.045 22.608 146.949 22.408 147.989 22.408ZM169.531 22.408C171.051 22.408 172.171 22.768 172.891 23.488C173.611 24.208 173.971 25.328 173.971 26.848V33.256C173.971 33.752 173.723 34 173.227 34C172.731 34 172.483 33.752 172.483 33.256V26.848C172.483 25.728 172.267 24.96 171.835 24.544C171.403 24.112 170.635 23.896 169.531 23.896H168.859C167.627 23.896 166.659 24.08 165.955 24.448C165.251 24.8 164.883 25.336 164.851 26.056V33.256C164.851 33.752 164.603 34 164.107 34C163.611 34 163.363 33.752 163.363 33.256V23.152C163.363 22.656 163.611 22.408 164.107 22.408C164.603 22.408 164.851 22.656 164.851 23.152V24.016C165.651 22.944 166.987 22.408 168.859 22.408H169.531ZM195.558 22.408C197.078 22.408 198.198 22.768 198.918 23.488C199.638 24.208 199.998 25.328 199.998 26.848V33.256C199.998 33.752 199.75 34 199.254 34C198.758 34 198.51 33.752 198.51 33.256V32.272C197.694 33.424 196.358 34 194.502 34H193.158C191.878 34 190.934 33.704 190.326 33.112C189.734 32.504 189.438 31.56 189.438 30.28C189.438 29 189.742 28.064 190.35 27.472C190.958 26.864 191.894 26.56 193.158 26.56H198.51C198.478 25.552 198.238 24.856 197.79 24.472C197.358 24.088 196.614 23.896 195.558 23.896H194.166C193.206 23.896 192.502 23.992 192.054 24.184C191.606 24.36 191.318 24.672 191.19 25.12C191.11 25.36 191.014 25.536 190.902 25.648C190.79 25.744 190.622 25.792 190.398 25.792C190.158 25.792 189.966 25.728 189.822 25.6C189.678 25.456 189.63 25.264 189.678 25.024C189.822 24.128 190.262 23.472 190.998 23.056C191.734 22.624 192.79 22.408 194.166 22.408H195.558ZM198.51 30.088V28.048H193.158C192.294 28.048 191.702 28.208 191.382 28.528C191.078 28.832 190.926 29.416 190.926 30.28C190.926 31.144 191.078 31.736 191.382 32.056C191.702 32.36 192.294 32.512 193.158 32.512H194.502C195.67 32.512 196.574 32.336 197.214 31.984C197.87 31.616 198.278 31.064 198.438 30.328L198.51 30.088ZM229.29 22.408C230.65 22.408 231.618 22.744 232.194 23.416C232.786 24.088 233.082 25.2 233.082 26.752V33.256C233.082 33.752 232.834 34 232.338 34C231.842 34 231.594 33.752 231.594 33.256V26.752C231.594 25.728 231.418 25 231.066 24.568C230.714 24.12 230.122 23.896 229.29 23.896H228.282C227.29 23.896 226.57 24.12 226.122 24.568C225.69 25 225.474 25.728 225.474 26.752V33.256C225.474 33.752 225.226 34 224.73 34C224.234 34 223.986 33.752 223.986 33.256V26.752C223.986 25.728 223.81 25 223.458 24.568C223.106 24.12 222.514 23.896 221.682 23.896H220.698C219.69 23.896 218.97 24.12 218.538 24.568C218.106 25 217.89 25.728 217.89 26.752V33.256C217.89 33.752 217.642 34 217.146 34C216.65 34 216.402 33.752 216.402 33.256V23.152C216.402 22.656 216.65 22.408 217.146 22.408C217.642 22.408 217.89 22.656 217.89 23.152V23.968C218.258 23.408 218.682 23.008 219.162 22.768C219.658 22.528 220.274 22.408 221.01 22.408H221.682C222.578 22.408 223.29 22.552 223.818 22.84C224.346 23.128 224.762 23.6 225.066 24.256C225.418 23.6 225.842 23.128 226.338 22.84C226.834 22.552 227.482 22.408 228.282 22.408H229.29ZM250.576 28.792V29.584C250.576 30.688 250.784 31.456 251.2 31.888C251.632 32.304 252.408 32.512 253.528 32.512H255.496C256.44 32.512 257.128 32.4 257.56 32.176C258.008 31.936 258.288 31.544 258.4 31C258.432 30.76 258.504 30.584 258.616 30.472C258.744 30.344 258.928 30.28 259.168 30.28C259.424 30.28 259.616 30.352 259.744 30.496C259.872 30.624 259.92 30.808 259.888 31.048C259.76 32.056 259.336 32.8 258.616 33.28C257.896 33.76 256.856 34 255.496 34H253.528C252.008 34 250.888 33.648 250.168 32.944C249.448 32.224 249.088 31.104 249.088 29.584V26.848C249.088 25.312 249.448 24.184 250.168 23.464C250.888 22.744 252.008 22.392 253.528 22.408H255.496C257.016 22.408 258.136 22.768 258.856 23.488C259.576 24.208 259.936 25.328 259.936 26.848V28.048C259.936 28.544 259.688 28.792 259.192 28.792H250.576ZM250.576 27.304H258.448V26.848C258.448 25.728 258.232 24.96 257.8 24.544C257.384 24.112 256.616 23.896 255.496 23.896H253.528C252.776 23.88 252.184 23.968 251.752 24.16C251.336 24.336 251.032 24.64 250.84 25.072C250.664 25.488 250.576 26.08 250.576 26.848V27.304Z" fill="#00A6FB"/>
</svg>
