<svg width="390" height="76" viewBox="0 0 390 76" fill="none" xmlns="http://www.w3.org/2000/svg">
<path d="M0 10C0 4.47715 4.47715 0 10 0H380C385.523 0 390 4.47715 390 10V66C390 71.5228 385.523 76 380 76H10C4.47715 76 0 71.5228 0 66V10Z" fill="#051923"/>
<ellipse cx="60.5" cy="47.1868" rx="12.5" ry="14.6154" fill="#00A6FB"/>
<ellipse cx="195.5" cy="47.1868" rx="12.5" ry="14.6154" fill="#00A6FB"/>
<ellipse cx="330.5" cy="47.1868" rx="12.5" ry="14.6154" fill="#00A6FB"/>
<line y1="-0.75" x2="271" y2="-0.75" transform="matrix(0.999999 0.000977801 -0.000715266 1 60 46.3517)" stroke="#00A6FB" stroke-width="1.5"/>
<path d="M131.901 14.648C133.181 14.648 134.101 14.976 134.661 15.632C135.221 16.288 135.501 17.368 135.501 18.872V25.4C135.501 25.816 135.293 26.024 134.877 26.024C134.461 26.024 134.253 25.816 134.253 25.4V18.872C134.253 17.816 134.069 17.056 133.701 16.592C133.333 16.128 132.733 15.896 131.901 15.896H130.917C129.861 15.896 129.109 16.128 128.661 16.592C128.213 17.056 127.989 17.816 127.989 18.872V25.4C127.989 25.816 127.781 26.024 127.365 26.024C126.949 26.024 126.741 25.816 126.741 25.4V18.872C126.741 17.816 126.557 17.056 126.189 16.592C125.821 16.128 125.221 15.896 124.389 15.896H123.381C122.341 15.896 121.589 16.128 121.125 16.592C120.677 17.056 120.453 17.816 120.453 18.872V25.4C120.453 25.816 120.245 26.024 119.829 26.024C119.413 26.024 119.205 25.816 119.205 25.4V15.296C119.205 14.88 119.413 14.672 119.829 14.672C120.245 14.672 120.453 14.88 120.453 15.296V16.232C120.805 15.672 121.221 15.272 121.701 15.032C122.181 14.776 122.797 14.648 123.549 14.648H124.389C125.237 14.648 125.909 14.8 126.405 15.104C126.917 15.392 127.325 15.872 127.629 16.544C127.949 15.872 128.365 15.392 128.877 15.104C129.389 14.8 130.069 14.648 130.917 14.648H131.901ZM140.383 26C140.191 26 140.039 25.952 139.927 25.856C139.815 25.744 139.759 25.584 139.759 25.376V15.296C139.759 15.088 139.815 14.936 139.927 14.84C140.039 14.728 140.191 14.672 140.383 14.672C140.799 14.672 141.007 14.88 141.007 15.296V25.376C141.007 25.792 140.799 26 140.383 26ZM140.119 12.488C139.847 12.488 139.639 12.416 139.495 12.272C139.351 12.128 139.279 11.92 139.279 11.648V11.12C139.279 10.848 139.351 10.64 139.495 10.496C139.639 10.352 139.847 10.28 140.119 10.28H140.671C141.199 10.28 141.463 10.56 141.463 11.12V11.648C141.463 12.208 141.199 12.488 140.671 12.488H140.119ZM147.95 25.976C146.974 25.976 146.222 25.768 145.694 25.352C145.182 24.936 144.878 24.296 144.782 23.432C144.766 23.224 144.806 23.064 144.902 22.952C145.014 22.824 145.174 22.76 145.382 22.76C145.574 22.76 145.718 22.816 145.814 22.928C145.926 23.024 145.998 23.176 146.03 23.384C146.094 23.88 146.27 24.232 146.558 24.44C146.862 24.632 147.326 24.728 147.95 24.728H151.886C152.638 24.728 153.15 24.592 153.422 24.32C153.71 24.032 153.854 23.512 153.854 22.76C153.854 22.008 153.71 21.496 153.422 21.224C153.15 20.936 152.638 20.792 151.886 20.792H148.022C146.966 20.792 146.182 20.544 145.67 20.048C145.174 19.552 144.926 18.784 144.926 17.744C144.926 16.688 145.174 15.912 145.67 15.416C146.182 14.904 146.966 14.648 148.022 14.648H151.766C153.59 14.648 154.598 15.448 154.79 17.048C154.806 17.256 154.758 17.416 154.646 17.528C154.55 17.64 154.398 17.696 154.19 17.696C153.998 17.696 153.846 17.648 153.734 17.552C153.638 17.456 153.566 17.304 153.518 17.096C153.454 16.648 153.286 16.336 153.014 16.16C152.758 15.984 152.342 15.896 151.766 15.896H148.022C147.318 15.896 146.83 16.032 146.558 16.304C146.302 16.56 146.174 17.04 146.174 17.744C146.174 18.432 146.302 18.904 146.558 19.16C146.83 19.416 147.318 19.544 148.022 19.544H151.886C152.99 19.544 153.798 19.808 154.31 20.336C154.838 20.864 155.102 21.672 155.102 22.76C155.102 23.864 154.838 24.68 154.31 25.208C153.798 25.72 152.99 25.976 151.886 25.976H147.95ZM161.333 25.976C160.357 25.976 159.605 25.768 159.077 25.352C158.565 24.936 158.261 24.296 158.165 23.432C158.149 23.224 158.189 23.064 158.285 22.952C158.397 22.824 158.557 22.76 158.765 22.76C158.957 22.76 159.101 22.816 159.197 22.928C159.309 23.024 159.381 23.176 159.413 23.384C159.477 23.88 159.653 24.232 159.941 24.44C160.245 24.632 160.709 24.728 161.333 24.728H165.269C166.021 24.728 166.533 24.592 166.805 24.32C167.093 24.032 167.237 23.512 167.237 22.76C167.237 22.008 167.093 21.496 166.805 21.224C166.533 20.936 166.021 20.792 165.269 20.792H161.405C160.349 20.792 159.565 20.544 159.053 20.048C158.557 19.552 158.309 18.784 158.309 17.744C158.309 16.688 158.557 15.912 159.053 15.416C159.565 14.904 160.349 14.648 161.405 14.648H165.149C166.973 14.648 167.981 15.448 168.173 17.048C168.189 17.256 168.141 17.416 168.029 17.528C167.933 17.64 167.781 17.696 167.573 17.696C167.381 17.696 167.229 17.648 167.117 17.552C167.021 17.456 166.949 17.304 166.901 17.096C166.837 16.648 166.669 16.336 166.397 16.16C166.141 15.984 165.725 15.896 165.149 15.896H161.405C160.701 15.896 160.213 16.032 159.941 16.304C159.685 16.56 159.557 17.04 159.557 17.744C159.557 18.432 159.685 18.904 159.941 19.16C160.213 19.416 160.701 19.544 161.405 19.544H165.269C166.373 19.544 167.181 19.808 167.693 20.336C168.221 20.864 168.485 21.672 168.485 22.76C168.485 23.864 168.221 24.68 167.693 25.208C167.181 25.72 166.373 25.976 165.269 25.976H161.333ZM172.868 26C172.676 26 172.524 25.952 172.412 25.856C172.3 25.744 172.244 25.584 172.244 25.376V15.296C172.244 15.088 172.3 14.936 172.412 14.84C172.524 14.728 172.676 14.672 172.868 14.672C173.284 14.672 173.492 14.88 173.492 15.296V25.376C173.492 25.792 173.284 26 172.868 26ZM172.604 12.488C172.332 12.488 172.124 12.416 171.98 12.272C171.836 12.128 171.764 11.92 171.764 11.648V11.12C171.764 10.848 171.836 10.64 171.98 10.496C172.124 10.352 172.332 10.28 172.604 10.28H173.156C173.684 10.28 173.948 10.56 173.948 11.12V11.648C173.948 12.208 173.684 12.488 173.156 12.488H172.604ZM181.97 26C180.466 26 179.37 25.656 178.682 24.968C177.994 24.28 177.65 23.192 177.65 21.704V18.992C177.65 17.472 177.994 16.368 178.682 15.68C179.37 14.992 180.466 14.656 181.97 14.672H183.938C185.442 14.672 186.538 15.016 187.226 15.704C187.914 16.392 188.258 17.488 188.258 18.992V21.68C188.258 23.184 187.914 24.28 187.226 24.968C186.538 25.656 185.442 26 183.938 26H181.97ZM183.938 24.752C185.074 24.752 185.866 24.528 186.314 24.08C186.778 23.616 187.01 22.816 187.01 21.68V18.992C187.01 17.856 186.778 17.064 186.314 16.616C185.866 16.152 185.074 15.92 183.938 15.92H181.97C180.834 15.904 180.034 16.128 179.57 16.592C179.122 17.04 178.898 17.84 178.898 18.992V21.704C178.898 22.84 179.122 23.632 179.57 24.08C180.034 24.528 180.834 24.752 181.97 24.752H183.938ZM198.448 14.672C199.952 14.672 201.048 15.024 201.736 15.728C202.424 16.416 202.768 17.504 202.768 18.992V25.376C202.768 25.792 202.56 26 202.144 26C201.728 26 201.52 25.792 201.52 25.376V18.992C201.52 17.84 201.296 17.04 200.848 16.592C200.4 16.144 199.6 15.92 198.448 15.92H197.776C196.512 15.92 195.528 16.12 194.824 16.52C194.12 16.92 193.736 17.512 193.672 18.296C193.672 18.376 193.664 18.432 193.648 18.464V25.376C193.648 25.792 193.44 26 193.024 26C192.608 26 192.4 25.792 192.4 25.376V15.296C192.4 14.88 192.608 14.672 193.024 14.672C193.44 14.672 193.648 14.88 193.648 15.296V16.448C194.416 15.264 195.792 14.672 197.776 14.672H198.448ZM219.073 14.672C220.577 14.672 221.673 15.024 222.361 15.728C223.049 16.416 223.393 17.504 223.393 18.992V25.376C223.393 25.792 223.185 26 222.769 26C222.353 26 222.145 25.792 222.145 25.376V18.992C222.145 17.84 221.921 17.04 221.473 16.592C221.025 16.144 220.225 15.92 219.073 15.92H218.401C217.137 15.92 216.153 16.12 215.449 16.52C214.745 16.92 214.361 17.512 214.297 18.296C214.297 18.376 214.289 18.432 214.273 18.464V25.376C214.273 25.792 214.065 26 213.649 26C213.233 26 213.025 25.792 213.025 25.376V15.296C213.025 14.88 213.233 14.672 213.649 14.672C214.065 14.672 214.273 14.88 214.273 15.296V16.448C215.041 15.264 216.417 14.672 218.401 14.672H219.073ZM232.701 14.672C234.205 14.672 235.301 15.016 235.989 15.704C236.677 16.392 237.021 17.488 237.021 18.992V25.376C237.021 25.792 236.813 26 236.397 26C235.981 26 235.773 25.792 235.773 25.376V24.2C235.389 24.792 234.845 25.24 234.141 25.544C233.453 25.848 232.621 26 231.645 26H230.301C229.069 26 228.157 25.712 227.565 25.136C226.989 24.56 226.701 23.648 226.701 22.4C226.701 21.152 226.989 20.24 227.565 19.664C228.157 19.072 229.069 18.776 230.301 18.776H235.773C235.741 17.72 235.501 16.984 235.053 16.568C234.605 16.136 233.821 15.92 232.701 15.92H231.309C230.285 15.92 229.541 16.032 229.077 16.256C228.613 16.464 228.325 16.832 228.213 17.36C228.149 17.568 228.069 17.72 227.973 17.816C227.877 17.896 227.741 17.936 227.565 17.936C227.341 17.936 227.173 17.88 227.061 17.768C226.965 17.656 226.925 17.496 226.941 17.288C227.053 16.376 227.461 15.712 228.165 15.296C228.885 14.88 229.933 14.672 231.309 14.672H232.701ZM235.773 22.16V20.024H230.301C229.405 20.024 228.789 20.2 228.453 20.552C228.117 20.888 227.949 21.504 227.949 22.4C227.949 23.28 228.117 23.896 228.453 24.248C228.805 24.584 229.421 24.752 230.301 24.752H231.645C234.125 24.752 235.485 23.952 235.725 22.352L235.773 22.16ZM253.963 14.648C255.243 14.648 256.163 14.976 256.723 15.632C257.283 16.288 257.563 17.368 257.563 18.872V25.4C257.563 25.816 257.355 26.024 256.939 26.024C256.523 26.024 256.315 25.816 256.315 25.4V18.872C256.315 17.816 256.131 17.056 255.763 16.592C255.395 16.128 254.795 15.896 253.963 15.896H252.979C251.923 15.896 251.171 16.128 250.723 16.592C250.275 17.056 250.051 17.816 250.051 18.872V25.4C250.051 25.816 249.843 26.024 249.427 26.024C249.011 26.024 248.803 25.816 248.803 25.4V18.872C248.803 17.816 248.619 17.056 248.251 16.592C247.883 16.128 247.283 15.896 246.451 15.896H245.443C244.403 15.896 243.651 16.128 243.187 16.592C242.739 17.056 242.515 17.816 242.515 18.872V25.4C242.515 25.816 242.307 26.024 241.891 26.024C241.475 26.024 241.267 25.816 241.267 25.4V15.296C241.267 14.88 241.475 14.672 241.891 14.672C242.307 14.672 242.515 14.88 242.515 15.296V16.232C242.867 15.672 243.283 15.272 243.763 15.032C244.243 14.776 244.859 14.648 245.611 14.648H246.451C247.299 14.648 247.971 14.8 248.467 15.104C248.979 15.392 249.387 15.872 249.691 16.544C250.011 15.872 250.427 15.392 250.939 15.104C251.451 14.8 252.131 14.648 252.979 14.648H253.963ZM262.758 20.816V21.704C262.758 22.84 262.982 23.632 263.43 24.08C263.894 24.528 264.694 24.752 265.83 24.752H267.798C268.822 24.752 269.558 24.624 270.006 24.368C270.47 24.096 270.742 23.64 270.822 23C270.902 22.6 271.118 22.4 271.47 22.4C271.694 22.4 271.854 22.456 271.95 22.568C272.062 22.68 272.102 22.84 272.07 23.048C271.958 24.056 271.55 24.8 270.846 25.28C270.158 25.76 269.142 26 267.798 26H265.83C264.342 26 263.246 25.656 262.542 24.968C261.854 24.28 261.51 23.192 261.51 21.704V18.992C261.51 17.488 261.854 16.392 262.542 15.704C263.246 15 264.342 14.656 265.83 14.672H267.798C269.286 14.672 270.374 15.024 271.062 15.728C271.766 16.416 272.118 17.504 272.118 18.992V20.192C272.118 20.608 271.91 20.816 271.494 20.816H262.758ZM262.758 19.568H270.87V18.992C270.87 17.84 270.646 17.04 270.198 16.592C269.75 16.144 268.95 15.92 267.798 15.92H265.83C264.678 15.904 263.878 16.12 263.43 16.568C262.982 17.016 262.758 17.824 262.758 18.992V19.568Z" fill="#0582CA"/>
<path d="M10 1H380V-1H10V1ZM389 10V66H391V10H389ZM380 75H10V77H380V75ZM1 66V10H-1V66H1ZM10 75C5.02944 75 1 70.9706 1 66H-1C-1 72.0751 3.92487 77 10 77V75ZM389 66C389 70.9706 384.971 75 380 75V77C386.075 77 391 72.0751 391 66H389ZM380 1C384.971 1 389 5.02944 389 10H391C391 3.92487 386.075 -1 380 -1V1ZM10 -1C3.92487 -1 -1 3.92487 -1 10H1C1 5.02944 5.02944 1 10 1V-1Z" fill="#00A6FB"/>
</svg>
