<svg width="85" height="85" viewBox="0 0 85 85" fill="none" xmlns="http://www.w3.org/2000/svg">
<circle cx="42.5" cy="42.5" r="42" fill="#00A6FB" fill-opacity="0.8" stroke="#00A6FB"/>
<path d="M17.503 51.97C16.283 51.97 15.343 51.71 14.683 51.19C14.043 50.67 13.663 49.87 13.543 48.79C13.523 48.53 13.573 48.33 13.693 48.19C13.833 48.03 14.033 47.95 14.293 47.95C14.533 47.95 14.713 48.02 14.833 48.16C14.973 48.28 15.063 48.47 15.103 48.73C15.183 49.35 15.403 49.79 15.763 50.05C16.143 50.29 16.723 50.41 17.503 50.41H22.423C23.363 50.41 24.003 50.24 24.343 49.9C24.703 49.54 24.883 48.89 24.883 47.95C24.883 47.01 24.703 46.37 24.343 46.03C24.003 45.67 23.363 45.49 22.423 45.49H17.593C16.273 45.49 15.293 45.18 14.653 44.56C14.033 43.94 13.723 42.98 13.723 41.68C13.723 40.36 14.033 39.39 14.653 38.77C15.293 38.13 16.273 37.81 17.593 37.81H22.273C24.553 37.81 25.813 38.81 26.053 40.81C26.073 41.07 26.013 41.27 25.873 41.41C25.753 41.55 25.563 41.62 25.303 41.62C25.063 41.62 24.873 41.56 24.733 41.44C24.613 41.32 24.523 41.13 24.463 40.87C24.383 40.31 24.173 39.92 23.833 39.7C23.513 39.48 22.993 39.37 22.273 39.37H17.593C16.713 39.37 16.103 39.54 15.763 39.88C15.443 40.2 15.283 40.8 15.283 41.68C15.283 42.54 15.443 43.13 15.763 43.45C16.103 43.77 16.713 43.93 17.593 43.93H22.423C23.803 43.93 24.813 44.26 25.453 44.92C26.113 45.58 26.443 46.59 26.443 47.95C26.443 49.33 26.113 50.35 25.453 51.01C24.813 51.65 23.803 51.97 22.423 51.97H17.503ZM36.9316 50.44C37.4716 50.44 37.7416 50.7 37.7416 51.22C37.7416 51.74 37.4716 52 36.9316 52C35.0916 52 33.7416 51.58 32.8816 50.74C32.0416 49.9 31.6216 48.56 31.6216 46.72V39.4H29.8216C29.3016 39.4 29.0416 39.14 29.0416 38.62C29.0416 38.1 29.3016 37.84 29.8216 37.84H31.6216V34.6C31.6216 34.08 31.8816 33.82 32.4016 33.82C32.9216 33.82 33.1816 34.08 33.1816 34.6V37.84H36.9616C37.4816 37.84 37.7416 38.1 37.7416 38.62C37.7416 39.14 37.4816 39.4 36.9616 39.4H33.1816V46.72C33.1816 48.12 33.4516 49.09 33.9916 49.63C34.5516 50.17 35.5316 50.44 36.9316 50.44ZM41.833 45.52V46.63C41.833 48.05 42.113 49.04 42.673 49.6C43.253 50.16 44.253 50.44 45.673 50.44H48.133C49.413 50.44 50.333 50.28 50.893 49.96C51.473 49.62 51.813 49.05 51.913 48.25C52.013 47.75 52.283 47.5 52.723 47.5C53.003 47.5 53.203 47.57 53.323 47.71C53.463 47.85 53.513 48.05 53.473 48.31C53.333 49.57 52.823 50.5 51.943 51.1C51.083 51.7 49.813 52 48.133 52H45.673C43.813 52 42.443 51.57 41.563 50.71C40.703 49.85 40.273 48.49 40.273 46.63V43.24C40.273 41.36 40.703 39.99 41.563 39.13C42.443 38.25 43.813 37.82 45.673 37.84H48.133C49.993 37.84 51.353 38.28 52.213 39.16C53.093 40.02 53.533 41.38 53.533 43.24V44.74C53.533 45.26 53.273 45.52 52.753 45.52H41.833ZM41.833 43.96H51.973V43.24C51.973 41.8 51.693 40.8 51.133 40.24C50.573 39.68 49.573 39.4 48.133 39.4H45.673C44.233 39.38 43.233 39.65 42.673 40.21C42.113 40.77 41.833 41.78 41.833 43.24V43.96ZM66.5699 37.84C68.4499 37.84 69.8199 38.27 70.6799 39.13C71.5399 39.99 71.9699 41.36 71.9699 43.24V46.6C71.9699 48.48 71.5399 49.85 70.6799 50.71C69.8199 51.57 68.4499 52 66.5699 52H60.2699V57.22C60.2699 57.74 60.0099 58 59.4899 58C58.9699 58 58.7099 57.74 58.7099 57.22V38.62C58.7099 38.1 58.9699 37.84 59.4899 37.84C60.0099 37.84 60.2699 38.1 60.2699 38.62V39.94C61.2099 38.54 62.9299 37.84 65.4299 37.84H66.5699ZM70.4099 43.24C70.4099 41.82 70.1299 40.83 69.5699 40.27C69.0099 39.69 68.0099 39.4 66.5699 39.4H65.4299C63.8499 39.4 62.6199 39.65 61.7399 40.15C60.8599 40.65 60.3799 41.4 60.2999 42.4C60.2999 42.5 60.2899 42.57 60.2699 42.61V50.44H66.5699C68.0099 50.44 69.0099 50.16 69.5699 49.6C70.1299 49.02 70.4099 48.02 70.4099 46.6V43.24Z" fill="black"/>
</svg>
