<svg width="414" height="894" viewBox="0 0 414 894" fill="none" xmlns="http://www.w3.org/2000/svg">
<rect width="414" height="118" fill="#051923"/>
<path d="M53.838 76.952C51.086 76.952 49.022 76.376 47.646 75.224C46.27 74.04 45.486 72.2 45.294 69.704C45.262 69.288 45.358 68.968 45.582 68.744C45.806 68.52 46.126 68.408 46.542 68.408C47.31 68.408 47.726 68.824 47.79 69.656C47.918 71.416 48.446 72.664 49.374 73.4C50.302 74.104 51.79 74.456 53.838 74.456H59.31C61.582 74.456 63.166 74.024 64.062 73.16C64.958 72.264 65.406 70.68 65.406 68.408C65.406 66.136 64.958 64.568 64.062 63.704C63.166 62.808 61.582 62.36 59.31 62.36H54.846C54.462 62.36 54.158 62.264 53.934 62.072C53.71 61.848 53.598 61.528 53.598 61.112C53.598 60.696 53.71 60.392 53.934 60.2C54.158 59.976 54.462 59.864 54.846 59.864H59.934C61.662 59.864 62.878 59.416 63.582 58.52C64.286 57.592 64.638 56.152 64.638 54.2C64.638 52.12 64.222 50.664 63.39 49.832C62.59 49 61.134 48.584 59.022 48.584H54.366C52.478 48.584 51.118 48.92 50.286 49.592C49.454 50.232 48.974 51.336 48.846 52.904C48.75 53.736 48.318 54.152 47.55 54.152C47.134 54.152 46.814 54.04 46.59 53.816C46.398 53.592 46.318 53.272 46.35 52.856C46.542 50.52 47.278 48.808 48.558 47.72C49.87 46.632 51.806 46.088 54.366 46.088H59.022C61.838 46.088 63.886 46.744 65.166 48.056C66.478 49.368 67.134 51.416 67.134 54.2C67.134 57.432 65.982 59.64 63.678 60.824C65.118 61.432 66.174 62.36 66.846 63.608C67.55 64.856 67.902 66.456 67.902 68.408C67.902 71.352 67.214 73.512 65.838 74.888C64.462 76.264 62.286 76.952 59.31 76.952H53.838ZM117.093 76.952C114.245 76.952 112.133 76.328 110.757 75.08C109.381 73.8 108.645 71.784 108.549 69.032C108.517 68.648 108.613 68.344 108.837 68.12C109.093 67.864 109.413 67.736 109.797 67.736C110.149 67.736 110.437 67.848 110.661 68.072C110.885 68.296 111.013 68.6 111.045 68.984C111.109 71.032 111.589 72.456 112.485 73.256C113.381 74.056 114.917 74.456 117.093 74.456H124.005C126.309 74.456 127.893 74.024 128.757 73.16C129.653 72.264 130.101 70.68 130.101 68.408C130.101 66.136 129.653 64.568 128.757 63.704C127.861 62.808 126.277 62.36 124.005 62.36H117.429C114.613 62.36 112.549 61.704 111.237 60.392C109.925 59.08 109.269 57.016 109.269 54.2C109.269 51.416 109.925 49.368 111.237 48.056C112.549 46.744 114.597 46.088 117.381 46.088H124.149C126.837 46.088 128.821 46.696 130.101 47.912C131.413 49.128 132.117 51.016 132.213 53.576C132.245 53.96 132.133 54.264 131.877 54.488C131.653 54.712 131.349 54.824 130.965 54.824C130.613 54.824 130.325 54.712 130.101 54.488C129.877 54.264 129.749 53.976 129.717 53.624C129.685 51.768 129.237 50.472 128.373 49.736C127.541 48.968 126.133 48.584 124.149 48.584H117.381C115.301 48.584 113.845 49 113.013 49.832C112.181 50.664 111.765 52.12 111.765 54.2C111.765 56.312 112.181 57.784 113.013 58.616C113.845 59.448 115.317 59.864 117.429 59.864H124.005C126.981 59.864 129.157 60.552 130.533 61.928C131.909 63.304 132.597 65.464 132.597 68.408C132.597 71.352 131.909 73.512 130.533 74.888C129.157 76.264 126.981 76.952 124.005 76.952H117.093ZM183.772 74.504C184.636 74.504 185.068 74.92 185.068 75.752C185.068 76.584 184.636 77 183.772 77C180.828 77 178.668 76.328 177.292 74.984C175.948 73.64 175.276 71.496 175.276 68.552V56.84H172.396C171.564 56.84 171.148 56.424 171.148 55.592C171.148 54.76 171.564 54.344 172.396 54.344H175.276V49.16C175.276 48.328 175.692 47.912 176.524 47.912C177.356 47.912 177.772 48.328 177.772 49.16V54.344H183.82C184.652 54.344 185.068 54.76 185.068 55.592C185.068 56.424 184.652 56.84 183.82 56.84H177.772V68.552C177.772 70.792 178.204 72.344 179.068 73.208C179.964 74.072 181.532 74.504 183.772 74.504ZM225.214 66.632V68.408C225.214 70.68 225.662 72.264 226.558 73.16C227.486 74.056 229.086 74.504 231.358 74.504H235.294C237.342 74.504 238.814 74.248 239.71 73.736C240.638 73.192 241.182 72.28 241.342 71C241.502 70.2 241.934 69.8 242.638 69.8C243.086 69.8 243.406 69.912 243.598 70.136C243.822 70.36 243.902 70.68 243.838 71.096C243.614 73.112 242.798 74.6 241.39 75.56C240.014 76.52 237.982 77 235.294 77H231.358C228.382 77 226.19 76.312 224.782 74.936C223.406 73.56 222.718 71.384 222.718 68.408V62.984C222.718 59.976 223.406 57.784 224.782 56.408C226.19 55 228.382 54.312 231.358 54.344H235.294C238.27 54.344 240.446 55.048 241.822 56.456C243.23 57.832 243.934 60.008 243.934 62.984V65.384C243.934 66.216 243.518 66.632 242.686 66.632H225.214ZM225.214 64.136H241.438V62.984C241.438 60.68 240.99 59.08 240.094 58.184C239.198 57.288 237.598 56.84 235.294 56.84H231.358C229.054 56.808 227.454 57.24 226.558 58.136C225.662 59.032 225.214 60.648 225.214 62.984V64.136ZM298.393 54.344C301.401 54.344 303.593 55.032 304.969 56.408C306.345 57.784 307.033 59.976 307.033 62.984V68.36C307.033 71.368 306.345 73.56 304.969 74.936C303.593 76.312 301.401 77 298.393 77H288.313V85.352C288.313 86.184 287.897 86.6 287.065 86.6C286.233 86.6 285.817 86.184 285.817 85.352V55.592C285.817 54.76 286.233 54.344 287.065 54.344C287.897 54.344 288.313 54.76 288.313 55.592V57.704C289.817 55.464 292.569 54.344 296.569 54.344H298.393ZM304.537 62.984C304.537 60.712 304.089 59.128 303.193 58.232C302.297 57.304 300.697 56.84 298.393 56.84H296.569C294.041 56.84 292.073 57.24 290.665 58.04C289.257 58.84 288.489 60.04 288.361 61.64C288.361 61.8 288.345 61.912 288.313 61.976V74.504H298.393C300.697 74.504 302.297 74.056 303.193 73.16C304.089 72.232 304.537 70.632 304.537 68.36V62.984ZM353.892 76.952C351.94 76.952 350.436 76.536 349.38 75.704C348.356 74.872 347.748 73.592 347.556 71.864C347.524 71.448 347.604 71.128 347.796 70.904C348.02 70.648 348.34 70.52 348.756 70.52C349.14 70.52 349.428 70.632 349.62 70.856C349.844 71.048 349.988 71.352 350.052 71.768C350.18 72.76 350.532 73.464 351.108 73.88C351.716 74.264 352.644 74.456 353.892 74.456H361.764C363.268 74.456 364.292 74.184 364.836 73.64C365.412 73.064 365.7 72.024 365.7 70.52C365.7 69.016 365.412 67.992 364.836 67.448C364.292 66.872 363.268 66.584 361.764 66.584H354.036C351.924 66.584 350.356 66.088 349.332 65.096C348.34 64.104 347.844 62.568 347.844 60.488C347.844 58.376 348.34 56.824 349.332 55.832C350.356 54.808 351.924 54.296 354.036 54.296H361.524C365.172 54.296 367.188 55.896 367.572 59.096C367.604 59.512 367.508 59.832 367.284 60.056C367.092 60.28 366.788 60.392 366.372 60.392C365.988 60.392 365.684 60.296 365.46 60.104C365.268 59.912 365.124 59.608 365.028 59.192C364.9 58.296 364.564 57.672 364.02 57.32C363.508 56.968 362.676 56.792 361.524 56.792H354.036C352.628 56.792 351.652 57.064 351.108 57.608C350.596 58.12 350.34 59.08 350.34 60.488C350.34 61.864 350.596 62.808 351.108 63.32C351.652 63.832 352.628 64.088 354.036 64.088H361.764C363.972 64.088 365.588 64.616 366.612 65.672C367.668 66.728 368.196 68.344 368.196 70.52C368.196 72.728 367.668 74.36 366.612 75.416C365.588 76.44 363.972 76.952 361.764 76.952H353.892Z" fill="#00A6FB" fill-opacity="0.7"/>
<rect width="414" height="118" fill="url(#paint0_linear)"/>
<path d="M0 118H414V894H0V118Z" fill="#003554"/>
<defs>
<linearGradient id="paint0_linear" x1="207" y1="0" x2="207" y2="118" gradientUnits="userSpaceOnUse">
<stop stop-color="#9EDEFF" stop-opacity="0.31"/>
<stop offset="1" stop-opacity="0"/>
</linearGradient>
</defs>
</svg>
