<svg width="116" height="40" viewBox="0 0 116 40" fill="none" xmlns="http://www.w3.org/2000/svg">
<rect width="116" height="40" rx="10" fill="#00A6FB"/>
<path d="M39.976 15.84C41.856 15.84 43.226 16.28 44.086 17.16C44.946 18.02 45.376 19.38 45.376 21.24V29.22C45.376 29.74 45.116 30 44.596 30C44.076 30 43.816 29.74 43.816 29.22V21.24C43.816 19.8 43.536 18.8 42.976 18.24C42.416 17.68 41.416 17.4 39.976 17.4H39.136C37.556 17.4 36.326 17.65 35.446 18.15C34.566 18.65 34.086 19.39 34.006 20.37C34.006 20.47 33.996 20.54 33.976 20.58V29.22C33.976 29.74 33.716 30 33.196 30C32.676 30 32.416 29.74 32.416 29.22V16.62C32.416 16.1 32.676 15.84 33.196 15.84C33.716 15.84 33.976 16.1 33.976 16.62V18.06C34.936 16.58 36.656 15.84 39.136 15.84H39.976ZM51.8672 23.52V24.63C51.8672 26.05 52.1472 27.04 52.7072 27.6C53.2872 28.16 54.2872 28.44 55.7072 28.44H58.1672C59.4472 28.44 60.3672 28.28 60.9272 27.96C61.5072 27.62 61.8472 27.05 61.9472 26.25C62.0472 25.75 62.3172 25.5 62.7572 25.5C63.0372 25.5 63.2372 25.57 63.3572 25.71C63.4972 25.85 63.5472 26.05 63.5072 26.31C63.3672 27.57 62.8572 28.5 61.9772 29.1C61.1172 29.7 59.8472 30 58.1672 30H55.7072C53.8472 30 52.4772 29.57 51.5972 28.71C50.7372 27.85 50.3072 26.49 50.3072 24.63V21.24C50.3072 19.36 50.7372 17.99 51.5972 17.13C52.4772 16.25 53.8472 15.82 55.7072 15.84H58.1672C60.0272 15.84 61.3872 16.28 62.2472 17.16C63.1272 18.02 63.5672 19.38 63.5672 21.24V22.74C63.5672 23.26 63.3072 23.52 62.7872 23.52H51.8672ZM51.8672 21.96H62.0072V21.24C62.0072 19.8 61.7272 18.8 61.1672 18.24C60.6072 17.68 59.6072 17.4 58.1672 17.4H55.7072C54.2672 17.38 53.2672 17.65 52.7072 18.21C52.1472 18.77 51.8672 19.78 51.8672 21.24V21.96ZM85.1082 15.9C85.4682 16.04 85.6482 16.27 85.6482 16.59C85.6482 16.65 85.6282 16.76 85.5882 16.92L80.9682 29.37C80.8282 29.79 80.5182 30 80.0382 30C79.7782 30 79.5682 29.95 79.4082 29.85C79.2682 29.75 79.1582 29.59 79.0782 29.37L75.8082 18.9L72.2082 29.37C72.0682 29.79 71.7582 30 71.2782 30C71.0182 30 70.8182 29.95 70.6782 29.85C70.5582 29.75 70.4582 29.59 70.3782 29.37L66.1182 16.89C66.0782 16.73 66.0582 16.63 66.0582 16.59C66.0582 16.25 66.2482 16.02 66.6282 15.9C66.7882 15.86 66.8982 15.84 66.9582 15.84C67.2582 15.84 67.4682 16.03 67.5882 16.41L71.3982 27.51L74.9982 16.62C75.1582 16.2 75.4582 15.99 75.8982 15.99C76.3382 15.99 76.6182 16.21 76.7382 16.65L80.1282 27.45L84.1182 16.38C84.2382 16.02 84.4582 15.84 84.7782 15.84C84.9182 15.84 85.0282 15.86 85.1082 15.9Z" fill="black"/>
</svg>
