<svg width="390" height="90" viewBox="0 0 390 90" fill="none" xmlns="http://www.w3.org/2000/svg">
<path d="M0 10C0 4.47715 4.47715 0 10 0H380C385.523 0 390 4.47715 390 10V80C390 85.5228 385.523 90 380 90H10C4.47715 90 0 85.5228 0 80V10Z" fill="#051923"/>
<path d="M208 57.5C208 64.4036 202.404 70 195.5 70C188.596 70 183 64.4036 183 57.5C183 50.5964 188.596 45 195.5 45C202.404 45 208 50.5964 208 57.5Z" fill="#00A6FB"/>
<path d="M70 57.5C70 64.4036 64.4036 70 57.5 70C50.5964 70 45 64.4036 45 57.5C45 50.5964 50.5964 45 57.5 45C64.4036 45 70 50.5964 70 57.5Z" fill="#00A6FB"/>
<path d="M347 57.5C347 64.4036 341.404 70 334.5 70C327.596 70 322 64.4036 322 57.5C322 50.5964 327.596 45 334.5 45C341.404 45 347 50.5964 347 57.5Z" fill="#00A6FB"/>
<path d="M131.401 18.648C132.681 18.648 133.601 18.976 134.161 19.632C134.721 20.288 135.001 21.368 135.001 22.872V29.4C135.001 29.816 134.793 30.024 134.377 30.024C133.961 30.024 133.753 29.816 133.753 29.4V22.872C133.753 21.816 133.569 21.056 133.201 20.592C132.833 20.128 132.233 19.896 131.401 19.896H130.417C129.361 19.896 128.609 20.128 128.161 20.592C127.713 21.056 127.489 21.816 127.489 22.872V29.4C127.489 29.816 127.281 30.024 126.865 30.024C126.449 30.024 126.241 29.816 126.241 29.4V22.872C126.241 21.816 126.057 21.056 125.689 20.592C125.321 20.128 124.721 19.896 123.889 19.896H122.881C121.841 19.896 121.089 20.128 120.625 20.592C120.177 21.056 119.953 21.816 119.953 22.872V29.4C119.953 29.816 119.745 30.024 119.329 30.024C118.913 30.024 118.705 29.816 118.705 29.4V19.296C118.705 18.88 118.913 18.672 119.329 18.672C119.745 18.672 119.953 18.88 119.953 19.296V20.232C120.305 19.672 120.721 19.272 121.201 19.032C121.681 18.776 122.297 18.648 123.049 18.648H123.889C124.737 18.648 125.409 18.8 125.905 19.104C126.417 19.392 126.825 19.872 127.129 20.544C127.449 19.872 127.865 19.392 128.377 19.104C128.889 18.8 129.569 18.648 130.417 18.648H131.401ZM139.883 30C139.691 30 139.539 29.952 139.427 29.856C139.315 29.744 139.259 29.584 139.259 29.376V19.296C139.259 19.088 139.315 18.936 139.427 18.84C139.539 18.728 139.691 18.672 139.883 18.672C140.299 18.672 140.507 18.88 140.507 19.296V29.376C140.507 29.792 140.299 30 139.883 30ZM139.619 16.488C139.347 16.488 139.139 16.416 138.995 16.272C138.851 16.128 138.779 15.92 138.779 15.648V15.12C138.779 14.848 138.851 14.64 138.995 14.496C139.139 14.352 139.347 14.28 139.619 14.28H140.171C140.699 14.28 140.963 14.56 140.963 15.12V15.648C140.963 16.208 140.699 16.488 140.171 16.488H139.619ZM147.45 29.976C146.474 29.976 145.722 29.768 145.194 29.352C144.682 28.936 144.378 28.296 144.282 27.432C144.266 27.224 144.306 27.064 144.402 26.952C144.514 26.824 144.674 26.76 144.882 26.76C145.074 26.76 145.218 26.816 145.314 26.928C145.426 27.024 145.498 27.176 145.53 27.384C145.594 27.88 145.77 28.232 146.058 28.44C146.362 28.632 146.826 28.728 147.45 28.728H151.386C152.138 28.728 152.65 28.592 152.922 28.32C153.21 28.032 153.354 27.512 153.354 26.76C153.354 26.008 153.21 25.496 152.922 25.224C152.65 24.936 152.138 24.792 151.386 24.792H147.522C146.466 24.792 145.682 24.544 145.17 24.048C144.674 23.552 144.426 22.784 144.426 21.744C144.426 20.688 144.674 19.912 145.17 19.416C145.682 18.904 146.466 18.648 147.522 18.648H151.266C153.09 18.648 154.098 19.448 154.29 21.048C154.306 21.256 154.258 21.416 154.146 21.528C154.05 21.64 153.898 21.696 153.69 21.696C153.498 21.696 153.346 21.648 153.234 21.552C153.138 21.456 153.066 21.304 153.018 21.096C152.954 20.648 152.786 20.336 152.514 20.16C152.258 19.984 151.842 19.896 151.266 19.896H147.522C146.818 19.896 146.33 20.032 146.058 20.304C145.802 20.56 145.674 21.04 145.674 21.744C145.674 22.432 145.802 22.904 146.058 23.16C146.33 23.416 146.818 23.544 147.522 23.544H151.386C152.49 23.544 153.298 23.808 153.81 24.336C154.338 24.864 154.602 25.672 154.602 26.76C154.602 27.864 154.338 28.68 153.81 29.208C153.298 29.72 152.49 29.976 151.386 29.976H147.45ZM160.833 29.976C159.857 29.976 159.105 29.768 158.577 29.352C158.065 28.936 157.761 28.296 157.665 27.432C157.649 27.224 157.689 27.064 157.785 26.952C157.897 26.824 158.057 26.76 158.265 26.76C158.457 26.76 158.601 26.816 158.697 26.928C158.809 27.024 158.881 27.176 158.913 27.384C158.977 27.88 159.153 28.232 159.441 28.44C159.745 28.632 160.209 28.728 160.833 28.728H164.769C165.521 28.728 166.033 28.592 166.305 28.32C166.593 28.032 166.737 27.512 166.737 26.76C166.737 26.008 166.593 25.496 166.305 25.224C166.033 24.936 165.521 24.792 164.769 24.792H160.905C159.849 24.792 159.065 24.544 158.553 24.048C158.057 23.552 157.809 22.784 157.809 21.744C157.809 20.688 158.057 19.912 158.553 19.416C159.065 18.904 159.849 18.648 160.905 18.648H164.649C166.473 18.648 167.481 19.448 167.673 21.048C167.689 21.256 167.641 21.416 167.529 21.528C167.433 21.64 167.281 21.696 167.073 21.696C166.881 21.696 166.729 21.648 166.617 21.552C166.521 21.456 166.449 21.304 166.401 21.096C166.337 20.648 166.169 20.336 165.897 20.16C165.641 19.984 165.225 19.896 164.649 19.896H160.905C160.201 19.896 159.713 20.032 159.441 20.304C159.185 20.56 159.057 21.04 159.057 21.744C159.057 22.432 159.185 22.904 159.441 23.16C159.713 23.416 160.201 23.544 160.905 23.544H164.769C165.873 23.544 166.681 23.808 167.193 24.336C167.721 24.864 167.985 25.672 167.985 26.76C167.985 27.864 167.721 28.68 167.193 29.208C166.681 29.72 165.873 29.976 164.769 29.976H160.833ZM172.368 30C172.176 30 172.024 29.952 171.912 29.856C171.8 29.744 171.744 29.584 171.744 29.376V19.296C171.744 19.088 171.8 18.936 171.912 18.84C172.024 18.728 172.176 18.672 172.368 18.672C172.784 18.672 172.992 18.88 172.992 19.296V29.376C172.992 29.792 172.784 30 172.368 30ZM172.104 16.488C171.832 16.488 171.624 16.416 171.48 16.272C171.336 16.128 171.264 15.92 171.264 15.648V15.12C171.264 14.848 171.336 14.64 171.48 14.496C171.624 14.352 171.832 14.28 172.104 14.28H172.656C173.184 14.28 173.448 14.56 173.448 15.12V15.648C173.448 16.208 173.184 16.488 172.656 16.488H172.104ZM181.47 30C179.966 30 178.87 29.656 178.182 28.968C177.494 28.28 177.15 27.192 177.15 25.704V22.992C177.15 21.472 177.494 20.368 178.182 19.68C178.87 18.992 179.966 18.656 181.47 18.672H183.438C184.942 18.672 186.038 19.016 186.726 19.704C187.414 20.392 187.758 21.488 187.758 22.992V25.68C187.758 27.184 187.414 28.28 186.726 28.968C186.038 29.656 184.942 30 183.438 30H181.47ZM183.438 28.752C184.574 28.752 185.366 28.528 185.814 28.08C186.278 27.616 186.51 26.816 186.51 25.68V22.992C186.51 21.856 186.278 21.064 185.814 20.616C185.366 20.152 184.574 19.92 183.438 19.92H181.47C180.334 19.904 179.534 20.128 179.07 20.592C178.622 21.04 178.398 21.84 178.398 22.992V25.704C178.398 26.84 178.622 27.632 179.07 28.08C179.534 28.528 180.334 28.752 181.47 28.752H183.438ZM197.948 18.672C199.452 18.672 200.548 19.024 201.236 19.728C201.924 20.416 202.268 21.504 202.268 22.992V29.376C202.268 29.792 202.06 30 201.644 30C201.228 30 201.02 29.792 201.02 29.376V22.992C201.02 21.84 200.796 21.04 200.348 20.592C199.9 20.144 199.1 19.92 197.948 19.92H197.276C196.012 19.92 195.028 20.12 194.324 20.52C193.62 20.92 193.236 21.512 193.172 22.296C193.172 22.376 193.164 22.432 193.148 22.464V29.376C193.148 29.792 192.94 30 192.524 30C192.108 30 191.9 29.792 191.9 29.376V19.296C191.9 18.88 192.108 18.672 192.524 18.672C192.94 18.672 193.148 18.88 193.148 19.296V20.448C193.916 19.264 195.292 18.672 197.276 18.672H197.948ZM218.573 18.672C220.077 18.672 221.173 19.024 221.861 19.728C222.549 20.416 222.893 21.504 222.893 22.992V29.376C222.893 29.792 222.685 30 222.269 30C221.853 30 221.645 29.792 221.645 29.376V22.992C221.645 21.84 221.421 21.04 220.973 20.592C220.525 20.144 219.725 19.92 218.573 19.92H217.901C216.637 19.92 215.653 20.12 214.949 20.52C214.245 20.92 213.861 21.512 213.797 22.296C213.797 22.376 213.789 22.432 213.773 22.464V29.376C213.773 29.792 213.565 30 213.149 30C212.733 30 212.525 29.792 212.525 29.376V19.296C212.525 18.88 212.733 18.672 213.149 18.672C213.565 18.672 213.773 18.88 213.773 19.296V20.448C214.541 19.264 215.917 18.672 217.901 18.672H218.573ZM232.201 18.672C233.705 18.672 234.801 19.016 235.489 19.704C236.177 20.392 236.521 21.488 236.521 22.992V29.376C236.521 29.792 236.313 30 235.897 30C235.481 30 235.273 29.792 235.273 29.376V28.2C234.889 28.792 234.345 29.24 233.641 29.544C232.953 29.848 232.121 30 231.145 30H229.801C228.569 30 227.657 29.712 227.065 29.136C226.489 28.56 226.201 27.648 226.201 26.4C226.201 25.152 226.489 24.24 227.065 23.664C227.657 23.072 228.569 22.776 229.801 22.776H235.273C235.241 21.72 235.001 20.984 234.553 20.568C234.105 20.136 233.321 19.92 232.201 19.92H230.809C229.785 19.92 229.041 20.032 228.577 20.256C228.113 20.464 227.825 20.832 227.713 21.36C227.649 21.568 227.569 21.72 227.473 21.816C227.377 21.896 227.241 21.936 227.065 21.936C226.841 21.936 226.673 21.88 226.561 21.768C226.465 21.656 226.425 21.496 226.441 21.288C226.553 20.376 226.961 19.712 227.665 19.296C228.385 18.88 229.433 18.672 230.809 18.672H232.201ZM235.273 26.16V24.024H229.801C228.905 24.024 228.289 24.2 227.953 24.552C227.617 24.888 227.449 25.504 227.449 26.4C227.449 27.28 227.617 27.896 227.953 28.248C228.305 28.584 228.921 28.752 229.801 28.752H231.145C233.625 28.752 234.985 27.952 235.225 26.352L235.273 26.16ZM253.463 18.648C254.743 18.648 255.663 18.976 256.223 19.632C256.783 20.288 257.063 21.368 257.063 22.872V29.4C257.063 29.816 256.855 30.024 256.439 30.024C256.023 30.024 255.815 29.816 255.815 29.4V22.872C255.815 21.816 255.631 21.056 255.263 20.592C254.895 20.128 254.295 19.896 253.463 19.896H252.479C251.423 19.896 250.671 20.128 250.223 20.592C249.775 21.056 249.551 21.816 249.551 22.872V29.4C249.551 29.816 249.343 30.024 248.927 30.024C248.511 30.024 248.303 29.816 248.303 29.4V22.872C248.303 21.816 248.119 21.056 247.751 20.592C247.383 20.128 246.783 19.896 245.951 19.896H244.943C243.903 19.896 243.151 20.128 242.687 20.592C242.239 21.056 242.015 21.816 242.015 22.872V29.4C242.015 29.816 241.807 30.024 241.391 30.024C240.975 30.024 240.767 29.816 240.767 29.4V19.296C240.767 18.88 240.975 18.672 241.391 18.672C241.807 18.672 242.015 18.88 242.015 19.296V20.232C242.367 19.672 242.783 19.272 243.263 19.032C243.743 18.776 244.359 18.648 245.111 18.648H245.951C246.799 18.648 247.471 18.8 247.967 19.104C248.479 19.392 248.887 19.872 249.191 20.544C249.511 19.872 249.927 19.392 250.439 19.104C250.951 18.8 251.631 18.648 252.479 18.648H253.463ZM262.258 24.816V25.704C262.258 26.84 262.482 27.632 262.93 28.08C263.394 28.528 264.194 28.752 265.33 28.752H267.298C268.322 28.752 269.058 28.624 269.506 28.368C269.97 28.096 270.242 27.64 270.322 27C270.402 26.6 270.618 26.4 270.97 26.4C271.194 26.4 271.354 26.456 271.45 26.568C271.562 26.68 271.602 26.84 271.57 27.048C271.458 28.056 271.05 28.8 270.346 29.28C269.658 29.76 268.642 30 267.298 30H265.33C263.842 30 262.746 29.656 262.042 28.968C261.354 28.28 261.01 27.192 261.01 25.704V22.992C261.01 21.488 261.354 20.392 262.042 19.704C262.746 19 263.842 18.656 265.33 18.672H267.298C268.786 18.672 269.874 19.024 270.562 19.728C271.266 20.416 271.618 21.504 271.618 22.992V24.192C271.618 24.608 271.41 24.816 270.994 24.816H262.258ZM262.258 23.568H270.37V22.992C270.37 21.84 270.146 21.04 269.698 20.592C269.25 20.144 268.45 19.92 267.298 19.92H265.33C264.178 19.904 263.378 20.12 262.93 20.568C262.482 21.016 262.258 21.824 262.258 22.992V23.568Z" fill="#0582CA"/>
<line x1="57" y1="56.25" x2="335" y2="56.25" stroke="#00A6FB" stroke-width="1.5"/>
<path d="M10 1H380V-1H10V1ZM389 10V80H391V10H389ZM380 89H10V91H380V89ZM1 80V10H-1V80H1ZM10 89C5.02944 89 1 84.9706 1 80H-1C-1 86.0751 3.92487 91 10 91V89ZM389 80C389 84.9706 384.971 89 380 89V91C386.075 91 391 86.0751 391 80H389ZM380 1C384.971 1 389 5.02944 389 10H391C391 3.92487 386.075 -1 380 -1V1ZM10 -1C3.92487 -1 -1 3.92487 -1 10H1C1 5.02944 5.02944 1 10 1V-1Z" fill="#00A6FB"/>
</svg>
