<svg width="390" height="110" viewBox="0 0 390 110" fill="none" xmlns="http://www.w3.org/2000/svg">
<path d="M0 10C0 4.47715 4.47715 0 10 0H380C385.523 0 390 4.47715 390 10V100C390 105.523 385.523 110 380 110H10C4.47715 110 0 105.523 0 100V10Z" fill="#051923"/>
<circle cx="60" cy="64.5" r="15" fill="#00A6FB"/>
<circle cx="195" cy="64.5" r="15" fill="#00A6FB"/>
<circle cx="330" cy="64.5" r="15" fill="#00A6FB"/>
<line x1="60" y1="64.25" x2="331" y2="64.25" stroke="#00A6FB" stroke-width="1.5"/>
<path d="M131.401 16.9813C132.681 16.9813 133.601 17.3093 134.161 17.9653C134.721 18.6213 135.001 19.7013 135.001 21.2053V27.7333C135.001 28.1493 134.793 28.3573 134.377 28.3573C133.961 28.3573 133.753 28.1493 133.753 27.7333V21.2053C133.753 20.1493 133.569 19.3893 133.201 18.9253C132.833 18.4613 132.233 18.2293 131.401 18.2293H130.417C129.361 18.2293 128.609 18.4613 128.161 18.9253C127.713 19.3893 127.489 20.1493 127.489 21.2053V27.7333C127.489 28.1493 127.281 28.3573 126.865 28.3573C126.449 28.3573 126.241 28.1493 126.241 27.7333V21.2053C126.241 20.1493 126.057 19.3893 125.689 18.9253C125.321 18.4613 124.721 18.2293 123.889 18.2293H122.881C121.841 18.2293 121.089 18.4613 120.625 18.9253C120.177 19.3893 119.953 20.1493 119.953 21.2053V27.7333C119.953 28.1493 119.745 28.3573 119.329 28.3573C118.913 28.3573 118.705 28.1493 118.705 27.7333V17.6293C118.705 17.2133 118.913 17.0053 119.329 17.0053C119.745 17.0053 119.953 17.2133 119.953 17.6293V18.5653C120.305 18.0053 120.721 17.6053 121.201 17.3653C121.681 17.1093 122.297 16.9813 123.049 16.9813H123.889C124.737 16.9813 125.409 17.1333 125.905 17.4373C126.417 17.7253 126.825 18.2053 127.129 18.8773C127.449 18.2053 127.865 17.7253 128.377 17.4373C128.889 17.1333 129.569 16.9813 130.417 16.9813H131.401ZM139.883 28.3333C139.691 28.3333 139.539 28.2853 139.427 28.1893C139.315 28.0773 139.259 27.9173 139.259 27.7093V17.6293C139.259 17.4213 139.315 17.2693 139.427 17.1733C139.539 17.0613 139.691 17.0053 139.883 17.0053C140.299 17.0053 140.507 17.2133 140.507 17.6293V27.7093C140.507 28.1253 140.299 28.3333 139.883 28.3333ZM139.619 14.8213C139.347 14.8213 139.139 14.7493 138.995 14.6053C138.851 14.4613 138.779 14.2533 138.779 13.9813V13.4533C138.779 13.1813 138.851 12.9733 138.995 12.8293C139.139 12.6853 139.347 12.6133 139.619 12.6133H140.171C140.699 12.6133 140.963 12.8933 140.963 13.4533V13.9813C140.963 14.5413 140.699 14.8213 140.171 14.8213H139.619ZM147.45 28.3093C146.474 28.3093 145.722 28.1013 145.194 27.6853C144.682 27.2693 144.378 26.6293 144.282 25.7653C144.266 25.5573 144.306 25.3973 144.402 25.2853C144.514 25.1573 144.674 25.0933 144.882 25.0933C145.074 25.0933 145.218 25.1493 145.314 25.2613C145.426 25.3573 145.498 25.5093 145.53 25.7173C145.594 26.2133 145.77 26.5653 146.058 26.7733C146.362 26.9653 146.826 27.0613 147.45 27.0613H151.386C152.138 27.0613 152.65 26.9253 152.922 26.6533C153.21 26.3653 153.354 25.8453 153.354 25.0933C153.354 24.3413 153.21 23.8293 152.922 23.5573C152.65 23.2693 152.138 23.1253 151.386 23.1253H147.522C146.466 23.1253 145.682 22.8773 145.17 22.3813C144.674 21.8853 144.426 21.1173 144.426 20.0773C144.426 19.0213 144.674 18.2453 145.17 17.7493C145.682 17.2373 146.466 16.9813 147.522 16.9813H151.266C153.09 16.9813 154.098 17.7813 154.29 19.3813C154.306 19.5893 154.258 19.7493 154.146 19.8613C154.05 19.9733 153.898 20.0293 153.69 20.0293C153.498 20.0293 153.346 19.9813 153.234 19.8853C153.138 19.7893 153.066 19.6373 153.018 19.4293C152.954 18.9813 152.786 18.6693 152.514 18.4933C152.258 18.3173 151.842 18.2293 151.266 18.2293H147.522C146.818 18.2293 146.33 18.3653 146.058 18.6373C145.802 18.8933 145.674 19.3733 145.674 20.0773C145.674 20.7653 145.802 21.2373 146.058 21.4933C146.33 21.7493 146.818 21.8773 147.522 21.8773H151.386C152.49 21.8773 153.298 22.1413 153.81 22.6693C154.338 23.1973 154.602 24.0053 154.602 25.0933C154.602 26.1973 154.338 27.0133 153.81 27.5413C153.298 28.0533 152.49 28.3093 151.386 28.3093H147.45ZM160.833 28.3093C159.857 28.3093 159.105 28.1013 158.577 27.6853C158.065 27.2693 157.761 26.6293 157.665 25.7653C157.649 25.5573 157.689 25.3973 157.785 25.2853C157.897 25.1573 158.057 25.0933 158.265 25.0933C158.457 25.0933 158.601 25.1493 158.697 25.2613C158.809 25.3573 158.881 25.5093 158.913 25.7173C158.977 26.2133 159.153 26.5653 159.441 26.7733C159.745 26.9653 160.209 27.0613 160.833 27.0613H164.769C165.521 27.0613 166.033 26.9253 166.305 26.6533C166.593 26.3653 166.737 25.8453 166.737 25.0933C166.737 24.3413 166.593 23.8293 166.305 23.5573C166.033 23.2693 165.521 23.1253 164.769 23.1253H160.905C159.849 23.1253 159.065 22.8773 158.553 22.3813C158.057 21.8853 157.809 21.1173 157.809 20.0773C157.809 19.0213 158.057 18.2453 158.553 17.7493C159.065 17.2373 159.849 16.9813 160.905 16.9813H164.649C166.473 16.9813 167.481 17.7813 167.673 19.3813C167.689 19.5893 167.641 19.7493 167.529 19.8613C167.433 19.9733 167.281 20.0293 167.073 20.0293C166.881 20.0293 166.729 19.9813 166.617 19.8853C166.521 19.7893 166.449 19.6373 166.401 19.4293C166.337 18.9813 166.169 18.6693 165.897 18.4933C165.641 18.3173 165.225 18.2293 164.649 18.2293H160.905C160.201 18.2293 159.713 18.3653 159.441 18.6373C159.185 18.8933 159.057 19.3733 159.057 20.0773C159.057 20.7653 159.185 21.2373 159.441 21.4933C159.713 21.7493 160.201 21.8773 160.905 21.8773H164.769C165.873 21.8773 166.681 22.1413 167.193 22.6693C167.721 23.1973 167.985 24.0053 167.985 25.0933C167.985 26.1973 167.721 27.0133 167.193 27.5413C166.681 28.0533 165.873 28.3093 164.769 28.3093H160.833ZM172.368 28.3333C172.176 28.3333 172.024 28.2853 171.912 28.1893C171.8 28.0773 171.744 27.9173 171.744 27.7093V17.6293C171.744 17.4213 171.8 17.2693 171.912 17.1733C172.024 17.0613 172.176 17.0053 172.368 17.0053C172.784 17.0053 172.992 17.2133 172.992 17.6293V27.7093C172.992 28.1253 172.784 28.3333 172.368 28.3333ZM172.104 14.8213C171.832 14.8213 171.624 14.7493 171.48 14.6053C171.336 14.4613 171.264 14.2533 171.264 13.9813V13.4533C171.264 13.1813 171.336 12.9733 171.48 12.8293C171.624 12.6853 171.832 12.6133 172.104 12.6133H172.656C173.184 12.6133 173.448 12.8933 173.448 13.4533V13.9813C173.448 14.5413 173.184 14.8213 172.656 14.8213H172.104ZM181.47 28.3333C179.966 28.3333 178.87 27.9893 178.182 27.3013C177.494 26.6133 177.15 25.5253 177.15 24.0373V21.3253C177.15 19.8053 177.494 18.7013 178.182 18.0133C178.87 17.3253 179.966 16.9893 181.47 17.0053H183.438C184.942 17.0053 186.038 17.3493 186.726 18.0373C187.414 18.7253 187.758 19.8213 187.758 21.3253V24.0133C187.758 25.5173 187.414 26.6133 186.726 27.3013C186.038 27.9893 184.942 28.3333 183.438 28.3333H181.47ZM183.438 27.0853C184.574 27.0853 185.366 26.8613 185.814 26.4133C186.278 25.9493 186.51 25.1493 186.51 24.0133V21.3253C186.51 20.1893 186.278 19.3973 185.814 18.9493C185.366 18.4853 184.574 18.2533 183.438 18.2533H181.47C180.334 18.2373 179.534 18.4613 179.07 18.9253C178.622 19.3733 178.398 20.1733 178.398 21.3253V24.0373C178.398 25.1733 178.622 25.9653 179.07 26.4133C179.534 26.8613 180.334 27.0853 181.47 27.0853H183.438ZM197.948 17.0053C199.452 17.0053 200.548 17.3573 201.236 18.0613C201.924 18.7493 202.268 19.8373 202.268 21.3253V27.7093C202.268 28.1253 202.06 28.3333 201.644 28.3333C201.228 28.3333 201.02 28.1253 201.02 27.7093V21.3253C201.02 20.1733 200.796 19.3733 200.348 18.9253C199.9 18.4773 199.1 18.2533 197.948 18.2533H197.276C196.012 18.2533 195.028 18.4533 194.324 18.8533C193.62 19.2533 193.236 19.8453 193.172 20.6293C193.172 20.7093 193.164 20.7653 193.148 20.7973V27.7093C193.148 28.1253 192.94 28.3333 192.524 28.3333C192.108 28.3333 191.9 28.1253 191.9 27.7093V17.6293C191.9 17.2133 192.108 17.0053 192.524 17.0053C192.94 17.0053 193.148 17.2133 193.148 17.6293V18.7813C193.916 17.5973 195.292 17.0053 197.276 17.0053H197.948ZM218.573 17.0053C220.077 17.0053 221.173 17.3573 221.861 18.0613C222.549 18.7493 222.893 19.8373 222.893 21.3253V27.7093C222.893 28.1253 222.685 28.3333 222.269 28.3333C221.853 28.3333 221.645 28.1253 221.645 27.7093V21.3253C221.645 20.1733 221.421 19.3733 220.973 18.9253C220.525 18.4773 219.725 18.2533 218.573 18.2533H217.901C216.637 18.2533 215.653 18.4533 214.949 18.8533C214.245 19.2533 213.861 19.8453 213.797 20.6293C213.797 20.7093 213.789 20.7653 213.773 20.7973V27.7093C213.773 28.1253 213.565 28.3333 213.149 28.3333C212.733 28.3333 212.525 28.1253 212.525 27.7093V17.6293C212.525 17.2133 212.733 17.0053 213.149 17.0053C213.565 17.0053 213.773 17.2133 213.773 17.6293V18.7813C214.541 17.5973 215.917 17.0053 217.901 17.0053H218.573ZM232.201 17.0053C233.705 17.0053 234.801 17.3493 235.489 18.0373C236.177 18.7253 236.521 19.8213 236.521 21.3253V27.7093C236.521 28.1253 236.313 28.3333 235.897 28.3333C235.481 28.3333 235.273 28.1253 235.273 27.7093V26.5333C234.889 27.1253 234.345 27.5733 233.641 27.8773C232.953 28.1813 232.121 28.3333 231.145 28.3333H229.801C228.569 28.3333 227.657 28.0453 227.065 27.4693C226.489 26.8933 226.201 25.9813 226.201 24.7333C226.201 23.4853 226.489 22.5733 227.065 21.9973C227.657 21.4053 228.569 21.1093 229.801 21.1093H235.273C235.241 20.0533 235.001 19.3173 234.553 18.9013C234.105 18.4693 233.321 18.2533 232.201 18.2533H230.809C229.785 18.2533 229.041 18.3653 228.577 18.5893C228.113 18.7973 227.825 19.1653 227.713 19.6933C227.649 19.9013 227.569 20.0533 227.473 20.1493C227.377 20.2293 227.241 20.2693 227.065 20.2693C226.841 20.2693 226.673 20.2133 226.561 20.1013C226.465 19.9893 226.425 19.8293 226.441 19.6213C226.553 18.7093 226.961 18.0453 227.665 17.6293C228.385 17.2133 229.433 17.0053 230.809 17.0053H232.201ZM235.273 24.4933V22.3573H229.801C228.905 22.3573 228.289 22.5333 227.953 22.8853C227.617 23.2213 227.449 23.8373 227.449 24.7333C227.449 25.6133 227.617 26.2293 227.953 26.5813C228.305 26.9173 228.921 27.0853 229.801 27.0853H231.145C233.625 27.0853 234.985 26.2853 235.225 24.6853L235.273 24.4933ZM253.463 16.9813C254.743 16.9813 255.663 17.3093 256.223 17.9653C256.783 18.6213 257.063 19.7013 257.063 21.2053V27.7333C257.063 28.1493 256.855 28.3573 256.439 28.3573C256.023 28.3573 255.815 28.1493 255.815 27.7333V21.2053C255.815 20.1493 255.631 19.3893 255.263 18.9253C254.895 18.4613 254.295 18.2293 253.463 18.2293H252.479C251.423 18.2293 250.671 18.4613 250.223 18.9253C249.775 19.3893 249.551 20.1493 249.551 21.2053V27.7333C249.551 28.1493 249.343 28.3573 248.927 28.3573C248.511 28.3573 248.303 28.1493 248.303 27.7333V21.2053C248.303 20.1493 248.119 19.3893 247.751 18.9253C247.383 18.4613 246.783 18.2293 245.951 18.2293H244.943C243.903 18.2293 243.151 18.4613 242.687 18.9253C242.239 19.3893 242.015 20.1493 242.015 21.2053V27.7333C242.015 28.1493 241.807 28.3573 241.391 28.3573C240.975 28.3573 240.767 28.1493 240.767 27.7333V17.6293C240.767 17.2133 240.975 17.0053 241.391 17.0053C241.807 17.0053 242.015 17.2133 242.015 17.6293V18.5653C242.367 18.0053 242.783 17.6053 243.263 17.3653C243.743 17.1093 244.359 16.9813 245.111 16.9813H245.951C246.799 16.9813 247.471 17.1333 247.967 17.4373C248.479 17.7253 248.887 18.2053 249.191 18.8773C249.511 18.2053 249.927 17.7253 250.439 17.4373C250.951 17.1333 251.631 16.9813 252.479 16.9813H253.463ZM262.258 23.1493V24.0373C262.258 25.1733 262.482 25.9653 262.93 26.4133C263.394 26.8613 264.194 27.0853 265.33 27.0853H267.298C268.322 27.0853 269.058 26.9573 269.506 26.7013C269.97 26.4293 270.242 25.9733 270.322 25.3333C270.402 24.9333 270.618 24.7333 270.97 24.7333C271.194 24.7333 271.354 24.7893 271.45 24.9013C271.562 25.0133 271.602 25.1733 271.57 25.3813C271.458 26.3893 271.05 27.1333 270.346 27.6133C269.658 28.0933 268.642 28.3333 267.298 28.3333H265.33C263.842 28.3333 262.746 27.9893 262.042 27.3013C261.354 26.6133 261.01 25.5253 261.01 24.0373V21.3253C261.01 19.8213 261.354 18.7253 262.042 18.0373C262.746 17.3333 263.842 16.9893 265.33 17.0053H267.298C268.786 17.0053 269.874 17.3573 270.562 18.0613C271.266 18.7493 271.618 19.8373 271.618 21.3253V22.5253C271.618 22.9413 271.41 23.1493 270.994 23.1493H262.258ZM262.258 21.9013H270.37V21.3253C270.37 20.1733 270.146 19.3733 269.698 18.9253C269.25 18.4773 268.45 18.2533 267.298 18.2533H265.33C264.178 18.2373 263.378 18.4533 262.93 18.9013C262.482 19.3493 262.258 20.1573 262.258 21.3253V21.9013Z" fill="#0582CA"/>
<path d="M10 1H380V-1H10V1ZM389 10V100H391V10H389ZM380 109H10V111H380V109ZM1 100V10H-1V100H1ZM10 109C5.02944 109 1 104.971 1 100H-1C-1 106.075 3.92487 111 10 111V109ZM389 100C389 104.971 384.971 109 380 109V111C386.075 111 391 106.075 391 100H389ZM380 1C384.971 1 389 5.02944 389 10H391C391 3.92487 386.075 -1 380 -1V1ZM10 -1C3.92487 -1 -1 3.92486 -1 10H1C1 5.02943 5.02944 1 10 1V-1Z" fill="#00A6FB"/>
</svg>
